<svg width="48" height="67" viewBox="0 0 48 67" fill="none" xmlns="http://www.w3.org/2000/svg">
<path d="M23.8981 21.8956C23.8981 21.8956 21.1414 20.8332 20.9004 19.1119C20.6594 17.3906 21.3883 14.2805 21.3883 13.3783C21.3883 12.4761 20.8181 10.2681 21.6293 7.97701C22.4404 5.68592 24.6269 3.31173 24.6269 3.31173L26.0082 2C26.0082 2 29.0882 3.31174 29.2528 4.37418C29.4173 5.43663 29.0882 5.68591 29.2528 6.42191C29.4173 7.15791 30.7927 7.241 30.7927 8.87919C30.7927 10.5174 31.0337 11.8291 31.5216 12.8085C32.0094 13.7937 32.3327 16.0848 31.5216 17.723C30.7105 19.3612 28.8472 20.7501 27.6305 21.4089C26.4138 22.0678 26.9016 22.1449 23.8981 21.9016V21.8956Z" stroke="#0F7275" stroke-width="2.5" stroke-miterlimit="10" stroke-linecap="round"/>
<path d="M25.1663 22.0273C25.1663 22.0273 24.6902 47.0987 23.4382 55.5211C22.1862 63.9494 20.0996 65 20.0996 65" stroke="#0F7275" stroke-width="2.5" stroke-miterlimit="10" stroke-linecap="round"/>
<path d="M25.1684 23.8547C25.1684 23.8547 22.4294 21.8011 21.2362 21.439C20.0371 21.0769 19.2025 20.7742 18.9027 20.5309C18.6029 20.2875 17.3451 20.2282 16.1519 20.2282C14.9587 20.2282 14.5355 19.5634 13.2189 19.5634C11.9023 19.5634 10.2859 19.6228 9.68633 19.5634C9.08679 19.504 8.31092 19.6821 6.9943 20.1095C5.67767 20.5309 5.79523 20.5902 5.85989 21.3796C5.92455 22.1691 7.53506 23.9794 8.01704 24.6441C8.49902 25.3089 8.97511 25.6116 9.80976 25.9737C10.6503 26.3358 10.7091 26.7572 11.3674 27.9086C12.0257 29.0542 12.0257 30.1463 13.8184 30.9298C15.6111 31.7133 19.9196 31.5352 21.9592 31.4106C23.9929 31.2919 24.9509 30.633 24.9509 30.633C24.9509 30.633 26.9847 29.0542 28.7186 29.7783C30.4526 30.5024 31.7692 30.1404 33.9851 30.0217C36.201 29.903 37.3942 28.2114 39.0106 27.8434C40.627 27.4754 42.3022 26.8521 42.361 25.5345C42.4197 24.2168 43.0193 23.2493 43.9186 22.5846C44.8179 21.9198 45.1764 19.8424 45.053 19.5515C44.9354 19.2607 44.4534 18.7799 43.0193 18.6553C41.5851 18.5366 40.9268 17.9312 39.8453 17.9312C38.7637 17.9312 37.5118 18.1152 34.8785 18.8986C32.2453 19.6821 32.1395 19.4803 30.1528 20.2875C28.1661 21.0948 26.9964 23.368 26.0854 23.6114L25.1743 23.8547H25.1684Z" stroke="#0F7275" stroke-width="2.5" stroke-miterlimit="10" stroke-linecap="round"/>
<path d="M24.8268 35.9975C24.8268 35.9975 26.3727 34.0032 27.3308 33.4571C28.2888 32.9111 30.5048 31.7715 32.2387 30.893C33.9727 30.0146 36.1886 30.3766 37.1467 30.3173C38.1047 30.2579 39.5977 29.8959 40.256 29.8365C40.9143 29.7772 42.3485 29.2904 43.0715 29.8365C43.7886 30.3826 42.6541 33.4037 41.8724 34.4306C41.0965 35.4574 41.99 33.8845 39.7153 37.2736C37.4405 40.6569 39.4743 41.565 35.3481 42.4078C31.2219 43.2506 31.6392 43.4168 28.9471 43.5177C26.2551 43.6186 24.48 42.2832 24.48 42.2832C22.3464 43.3041 21.8291 42.7165 20.0952 42.7165C18.3613 42.7165 16.4392 42.7165 14.1998 42.295C11.9603 41.8736 9.32121 39.9387 9.32121 39.9387C7.88703 38.7278 6.57041 38.4904 5.37134 36.8582C4.17227 35.2259 3.57861 34.1991 3.57861 32.8695C3.57861 31.54 4.83646 31.1186 6.87017 30.9346C8.90389 30.7506 10.7613 31.54 11.7193 31.5281C12.6774 31.5162 14.8287 31.6587 15.9102 31.5281C16.9858 31.3975 18.5435 32.0861 20.4596 32.4481C22.3758 32.8102 24.8327 34.0151 24.8327 34.0151" stroke="#0F7275" stroke-width="2.5" stroke-miterlimit="10" stroke-linecap="round"/>
<path d="M23.8149 52.2383C23.8149 52.2383 22.6041 53.1583 21.5285 53.1583C20.4529 53.1583 18.2957 54.9686 16.3795 54.9686C14.4634 54.9686 12.3709 53.5797 11.2306 52.4283C10.0903 51.2768 8.29758 51.8228 6.26387 50.6773C4.23015 49.5318 2.13178 48.1369 1.71446 47.5375C1.29714 46.938 1.59691 46.57 1.71446 46.2079C1.83202 45.8458 2.73132 45.2404 4.1655 44.9377C5.59968 44.635 7.75683 43.3055 9.24978 43.2461C10.7427 43.1868 13.617 43.2461 14.7573 43.2461C15.8976 43.2461 17.7491 44.2136 19.483 44.9377C21.217 45.6618 24.15 47.8461 24.15 47.8461C24.15 47.8461 25.878 47.4781 26.4188 47.2941C26.9596 47.1101 27.9823 45.9646 29.1167 45.5431C30.2511 45.1217 31.9909 43.531 33.6073 43.5073C35.2237 43.4895 35.5823 42.8247 37.616 42.338C39.6497 41.8572 42.8649 40.8897 45.0573 41.9166C47.2497 42.9434 46.2916 43.1868 46.2916 44.3323C46.2916 45.4779 46.1094 46.6887 42.9413 48.5049C39.7731 50.3212 38.1509 52.2502 35.3413 52.2502C32.5317 52.2502 31.0916 52.8556 29.2401 52.8556C27.3886 52.8556 25.7605 52.3748 25.4372 52.3748C25.1139 52.3748 23.8091 52.2383 23.8091 52.2383H23.8149Z" stroke="#0F7275" stroke-width="2.5" stroke-miterlimit="10" stroke-linecap="round"/>
</svg>
