<svg width="58" height="53" viewBox="0 0 58 53" fill="none" xmlns="http://www.w3.org/2000/svg">
<path d="M54.8825 43.3789C54.7345 39.0588 53.5101 34.8401 51.3184 31.1257L34.9675 3.41097C33.7258 1.30698 31.4392 0 29.0002 0C26.5612 0 24.2746 1.30709 23.0328 3.41108L15.7755 15.7122C15.5219 16.1419 15.6648 16.6958 16.0945 16.9494C16.5243 17.2028 17.078 17.0601 17.3317 16.6304L24.589 4.32929C25.5072 2.77341 27.1975 1.80688 29.0002 1.80688C30.8029 1.80688 32.4932 2.77341 33.4115 4.32918L49.7624 32.0439C51.7875 35.476 52.9234 39.3718 53.0728 43.3637H4.92755C5.07694 39.3719 6.21297 35.476 8.23801 32.0438L15.4954 19.7426C15.7489 19.3129 15.6061 18.7589 15.1764 18.5054C14.7464 18.2517 14.1927 18.3947 13.9392 18.8244L6.68191 31.1253C4.49023 34.8398 3.26574 39.0584 3.1178 43.3786C1.75719 43.5222 0.693359 44.676 0.693359 46.0739C0.693359 47.5416 1.86621 48.7397 3.32379 48.7821L3.84537 50.6074C4.22862 51.9491 5.62184 53 7.01717 53H50.9831C52.3784 53 53.7717 51.949 54.1549 50.6075L54.6765 48.7821C56.1342 48.7397 57.307 47.5416 57.307 46.0739C57.307 44.676 56.2432 43.5221 54.8825 43.3789ZM52.4177 50.1112C52.2559 50.6775 51.5722 51.1932 50.9832 51.1932H7.01728C6.42826 51.1932 5.74458 50.6774 5.58281 50.1112L5.20365 48.7842H52.7969L52.4177 50.1112ZM54.5968 46.9773H3.40363C2.90538 46.9773 2.50024 46.572 2.50024 46.0739C2.50024 45.5756 2.90549 45.1705 3.40363 45.1705H54.5969C55.0951 45.1705 55.5002 45.5758 55.5002 46.0739C55.5002 46.5721 55.095 46.9773 54.5968 46.9773Z" fill="#0F7275"/>
</svg>
