<svg width="48" height="67" viewBox="0 0 48 67" fill="none" xmlns="http://www.w3.org/2000/svg">
<path d="M20.9864 48.4088C20.7596 49.2205 19.4685 49.1253 19.1661 48.3304C18.9451 47.7538 18.7474 47.2556 18.5438 46.7629C16.2874 41.3495 11.03 37.8507 5.61557 38.1418C1.78304 38.3489 0.427985 40.633 2.23666 43.9247C4.1035 47.3339 7.15091 49.3997 11.0125 49.9595C13.5249 50.3234 16.1303 50.0602 19.0905 50.0323C19.3115 50.0323 19.4802 50.2394 19.4162 50.4465C17.718 55.7983 13.9204 59.7226 11.3208 64.4083C11.1405 64.7274 11.472 65.0913 11.8267 64.9793C12.4025 64.8002 12.891 64.5259 13.1585 64.1116C15.2812 60.8591 17.34 57.5618 19.2882 54.2085C20.9806 51.2974 21.1841 51.1463 24.47 52.2435C30.245 54.1637 36.4736 52.7082 39.7594 48.6551C42.2776 45.5537 41.4867 43.2081 37.5669 42.2004C32.484 40.8961 26.3659 43.7063 23.1789 48.8063C22.8998 49.2541 22.4171 49.3045 21.9867 49.45C21.725 49.5396 21.9925 48.823 22.0681 48.5655C22.9056 45.7105 24.0396 44.2662 24.9818 41.4223C25.7146 39.2054 26.3834 38.4553 29.0062 39.5077C34.694 41.7862 41.5448 39.9164 44.6562 35.7066C46.8778 32.7004 45.8833 30.2092 42.1032 29.543C36.5317 28.5634 32.2223 30.6963 28.8143 34.8053C28.1804 35.5722 27.657 36.4176 26.9882 37.4588C26.8254 37.7107 26.4241 37.554 26.488 37.2685C27.0231 34.8165 27.372 32.706 27.7966 30.6235C28.2909 28.1827 29.0295 27.5893 31.6 28.1435C37.061 29.3191 43.243 26.4641 45.7147 22.0079C47.6048 18.5931 46.2439 16.2474 42.2776 16.0907C37.1249 15.8947 32.2863 18.9289 29.867 23.8833C29.5529 24.5271 29.2621 25.1765 28.9423 25.8874C28.826 26.1394 28.4014 26.0722 28.4189 25.7979C28.6457 22.7301 29.047 20.3733 30.9894 17.8877C34.1008 13.9018 34.6474 9.15458 31.8676 4.63687C31.1115 3.41088 29.3901 1.98335 28.1281 2.00015C26.8544 2.01134 25.1272 3.45567 24.4293 4.70405C21.6494 9.65282 22.5915 14.4448 25.8949 18.8842C27.8024 21.4537 27.9303 22.7413 27.5581 25.6075C27.5174 25.9322 27.0173 25.9602 26.8952 25.6579C26.6509 25.0533 26.4183 24.4879 26.174 23.9281C23.7663 18.4531 18.253 15.055 12.7805 15.6596C9.8145 15.9899 8.54667 17.8597 9.65165 20.5132C11.2277 24.3088 14.3216 26.6376 18.3577 27.3318C20.8759 27.7628 23.5221 27.4941 26.5927 27.4325C27.1278 27.4213 27.2673 28.1435 27.1627 28.6473C26.552 31.6032 26.238 34.1559 25.668 36.9438C25.6041 37.2405 25.2144 37.358 24.9992 37.1341C24.3014 36.4176 23.9524 35.6954 23.5744 34.9844C20.8643 29.8901 15.5546 26.9343 10.146 27.4885C6.48793 27.8636 5.15613 30.1868 6.91829 33.2098C8.68044 36.2328 11.472 38.1586 14.9323 38.6232C17.8343 39.0095 20.8294 38.7464 24.0397 38.7128C24.3479 38.7128 24.406 39.3846 24.313 39.6645C23.2836 42.7267 21.9402 44.9827 20.9864 48.4088Z" stroke="#0F7275" stroke-width="2.5" stroke-miterlimit="10"/>
</svg>
