<svg width="29" height="29" viewBox="0 0 29 29" fill="none" xmlns="http://www.w3.org/2000/svg">
<rect width="29" height="29" rx="10" fill="#D45D5D"/>
<path d="M14.4971 5.18262C9.34848 5.18262 5.1769 9.35703 5.1769 14.5028C5.1769 19.6486 9.35131 23.823 14.4971 23.823C19.6429 23.823 23.8173 19.6515 23.8173 14.5057C23.8173 9.35986 19.6429 5.18262 14.4971 5.18262ZM14.4971 21.7557C10.4983 21.7557 7.24711 18.5045 7.24711 14.5057C7.24711 10.5068 10.4983 7.25566 14.4971 7.25566C18.4959 7.25566 21.7471 10.5068 21.7471 14.5057C21.7471 18.5045 18.4931 21.7557 14.4971 21.7557Z" fill="#FDFDFD"/>
<path d="M13.4636 10.3567H15.5338V15.5365H13.4636V10.3567ZM13.4636 16.5702H15.5338V18.6404H13.4636V16.5702Z" fill="#FDFDFD"/>
</svg>
