<svg width="71" height="70" viewBox="0 0 71 70" fill="none" xmlns="http://www.w3.org/2000/svg">
<path fill-rule="evenodd" clip-rule="evenodd" d="M35.5002 8.02087C25.4325 8.02087 17.271 16.1823 17.271 26.25C17.271 36.3178 25.4325 44.4792 35.5002 44.4792C45.5679 44.4792 53.7293 36.3178 53.7293 26.25C53.7293 16.1823 45.5679 8.02087 35.5002 8.02087ZM12.896 26.25C12.896 13.7661 23.0162 3.64587 35.5002 3.64587C47.9841 3.64587 58.1043 13.7661 58.1043 26.25C58.1043 32.7408 55.3685 38.5925 50.9871 42.7152C51.0632 42.8572 51.1247 43.0098 51.1691 43.1717L53.0634 50.0818C53.9487 53.3097 54.6615 55.9096 54.9855 57.9271C55.3034 59.9046 55.3685 61.9416 54.2619 63.5974C53.6319 64.54 52.7764 65.3121 51.7652 65.8269C49.9283 66.7622 47.9249 66.3011 46.1302 65.6236C44.2997 64.9323 42.0008 63.7345 39.1772 62.2633L39.0413 62.1924C36.929 61.0917 36.3775 60.8446 35.8475 60.7883C35.6165 60.7635 35.3838 60.7635 35.1528 60.7883C34.6228 60.8446 34.0713 61.0917 31.959 62.1924L31.8231 62.2633C28.9996 63.7345 26.7007 64.9323 24.87 65.6236C23.0753 66.3011 21.072 66.7622 19.2351 65.8269C18.224 65.3121 17.3684 64.54 16.7384 63.5974C15.6318 61.9416 15.6969 59.9046 16.0147 57.9271C16.3389 55.9096 17.0517 53.3097 17.9368 50.0818L19.8312 43.1717C19.8756 43.0098 19.9371 42.8572 20.0131 42.7152C15.6318 38.5925 12.896 32.7408 12.896 26.25ZM23.7173 45.5441L22.193 51.1038C21.2625 54.498 20.6161 56.8672 20.3343 58.6212C20.0414 60.4436 20.2597 60.9925 20.3759 61.1663C20.603 61.5061 20.8972 61.7637 21.2202 61.9282C21.2869 61.962 21.7048 62.142 23.3249 61.5303C24.8799 60.9435 26.9451 59.8716 29.9375 58.3124C30.039 58.2596 30.1396 58.2071 30.2391 58.1552C31.8957 57.2895 33.2284 56.5936 34.6893 56.4378C35.2283 56.3804 35.772 56.3804 36.311 56.4378C37.7719 56.5936 39.1046 57.2895 40.7612 58.1552C40.8607 58.2071 40.9613 58.2596 41.0628 58.3124C44.0553 59.8716 46.1203 60.9435 47.6755 61.5303C49.2957 62.142 49.7134 61.962 49.7802 61.9282C50.103 61.7637 50.3973 61.5061 50.6245 61.1663C50.7406 60.9925 50.9591 60.4436 50.6659 58.6212C50.3842 56.8672 49.7379 54.498 48.8074 51.1038L47.2829 45.5441C43.852 47.6438 39.8174 48.8542 35.5002 48.8542C31.1829 48.8542 27.1483 47.6438 23.7173 45.5441ZM35.5002 20.5173C35.3307 20.8108 35.142 21.1489 34.9197 21.5475L34.633 22.0619C34.6129 22.0982 34.5913 22.1378 34.568 22.1803C34.339 22.5992 33.9596 23.2928 33.3272 23.7729C32.6815 24.2631 31.9048 24.4318 31.4507 24.5304C31.4052 24.5403 31.3629 24.5494 31.3244 24.5581L30.7676 24.6841C30.2566 24.7997 29.8404 24.8941 29.4845 24.9835C29.7161 25.2684 30.0165 25.6222 30.4077 26.0795L30.7874 26.5234C30.8142 26.5549 30.8437 26.5886 30.8746 26.6246C31.1896 26.9872 31.6977 27.5726 31.9328 28.3285C32.1652 29.0754 32.085 29.8445 32.0346 30.3299C32.0293 30.3783 32.0247 30.4238 32.0206 30.4664L31.9631 31.0587C31.91 31.6077 31.8686 32.046 31.8412 32.4025C32.1451 32.2686 32.4907 32.1093 32.9014 31.9203L33.4229 31.6803C33.4588 31.6637 33.4982 31.6453 33.5405 31.6252C33.959 31.4277 34.6873 31.0844 35.5002 31.0844C36.313 31.0844 37.0413 31.4277 37.4599 31.6252C37.5022 31.6453 37.5415 31.6637 37.5774 31.6803L38.0989 31.9203C38.5096 32.1093 38.8552 32.2686 39.1591 32.4025C39.1317 32.046 39.0903 31.6077 39.0372 31.0587L38.9797 30.4664C38.9757 30.4238 38.971 30.3783 38.9657 30.3299C38.9153 29.8445 38.8351 29.0754 39.0675 28.3285C39.3026 27.5726 39.8107 26.9872 40.1257 26.6246C40.1566 26.5886 40.1861 26.5549 40.2129 26.5234L40.5927 26.0795C40.9838 25.6222 41.2842 25.2684 41.5158 24.9835C41.16 24.8941 40.7437 24.7997 40.2327 24.6841L39.676 24.5581C39.6374 24.5494 39.5952 24.5403 39.5497 24.5304C39.0955 24.4318 38.3188 24.2631 37.6731 23.7729C37.0407 23.2928 36.6613 22.5992 36.4323 22.1803C36.409 22.1378 36.3874 22.0982 36.3673 22.0619L36.0806 21.5475C35.8583 21.1489 35.6696 20.8108 35.5002 20.5173ZM32.6229 16.9156C33.1251 16.2599 34.0369 15.3125 35.5002 15.3125C36.9635 15.3125 37.8752 16.2599 38.3775 16.9156C38.8567 17.5415 39.3394 18.4078 39.8343 19.296C39.8568 19.3364 39.8792 19.3768 39.9017 19.4173L40.1887 19.9316C40.2552 20.0509 40.3074 20.1448 40.3532 20.2251C40.4328 20.2438 40.5256 20.2648 40.6414 20.291L41.1982 20.417C41.2439 20.4273 41.2894 20.4376 41.3349 20.4479C42.2913 20.664 43.2416 20.8787 43.9707 21.1661C44.7763 21.4835 45.868 22.1017 46.2886 23.4547C46.7022 24.7839 46.1804 25.9098 45.7248 26.6335C45.3034 27.3032 44.6626 28.0521 44.0066 28.8189C43.9769 28.8535 43.9474 28.8882 43.9177 28.9229L43.5379 29.3668C43.4373 29.4843 43.3615 29.5733 43.2979 29.65C43.3063 29.7559 43.3183 29.8792 43.3343 30.0443L43.3918 30.6367C43.3962 30.6819 43.4005 30.7268 43.4049 30.772C43.5047 31.7984 43.6009 32.7904 43.5656 33.584C43.5286 34.4158 43.3288 35.6752 42.1994 36.5325C41.0345 37.4168 39.748 37.2243 38.9322 36.9904C38.1806 36.7751 37.2922 36.3656 36.3976 35.9535C36.3547 35.9337 36.3119 35.9141 36.269 35.8943L35.7478 35.6542C35.6501 35.6093 35.5702 35.5726 35.5002 35.5408C35.4302 35.5726 35.3502 35.6093 35.2525 35.6542L34.7313 35.8943C34.6884 35.9141 34.6456 35.9337 34.6027 35.9535C33.7082 36.3656 32.8197 36.7751 32.0681 36.9904C31.2523 37.2243 29.9658 37.4168 28.8008 36.5325C27.6715 35.6752 27.4718 34.4158 27.4348 33.584C27.3994 32.7904 27.4957 31.7984 27.5954 30.772C27.5998 30.7268 27.6042 30.6819 27.6086 30.6367L27.666 30.0443C27.682 29.8792 27.6939 29.7559 27.7026 29.65C27.6387 29.5733 27.5629 29.4843 27.4624 29.3668L27.0827 28.9229C27.0531 28.8882 27.0234 28.8535 26.9937 28.8189C26.3377 28.0521 25.697 27.3032 25.2754 26.6335C24.8198 25.9098 24.2982 24.7839 24.7116 23.4547C25.1323 22.1017 26.2241 21.4835 27.0295 21.1661C27.7589 20.8787 28.7091 20.664 29.6652 20.4479C29.7109 20.4376 29.7564 20.4273 29.8019 20.417L30.359 20.291C30.4747 20.2648 30.5675 20.2438 30.6471 20.2251C30.6929 20.1448 30.7451 20.0509 30.8116 19.9316L31.0986 19.4173C31.1211 19.3768 31.1435 19.3364 31.166 19.296C31.661 18.4078 32.1437 17.5415 32.6229 16.9156Z" fill="#0F7275"/>
</svg>
