<svg width="61" height="61" viewBox="0 0 61 61" fill="none" xmlns="http://www.w3.org/2000/svg">
<path d="M14.1646 6.82715C14.8975 6.09565 14.8987 4.90845 14.1672 4.1755C13.4357 3.44253 12.2485 3.44135 11.5156 4.17285C6.64302 9.0357 3.625 15.7649 3.625 23.1954C3.625 30.713 6.7141 37.5125 11.6874 42.388C12.4269 43.1128 13.614 43.101 14.3389 42.3615C15.0638 41.622 15.052 40.435 14.3126 39.71C10.0291 35.5108 7.375 29.6648 7.375 23.1954C7.375 16.8008 9.96805 11.0153 14.1646 6.82715Z" fill="#0F7275"/>
<path d="M49.6924 4.38284C48.9674 3.64337 47.7804 3.63159 47.0409 4.35649C46.3014 5.08142 46.2896 6.26854 47.0146 7.00802C51.1054 11.1811 53.6249 16.8922 53.6249 23.1954C53.6249 29.5733 51.0454 35.3453 46.8681 39.5308C46.1366 40.2638 46.1379 41.451 46.8709 42.1825C47.6036 42.914 48.7909 42.9128 49.5224 42.1798C54.3726 37.32 57.3749 30.6065 57.3749 23.1954C57.3749 15.8714 54.4426 9.22852 49.6924 4.38284Z" fill="#0F7275"/>
<path d="M21.1852 14.5644C21.9413 13.8568 21.9806 12.6703 21.2731 11.9142C20.5655 11.1581 19.379 11.1187 18.6229 11.8263C15.5537 14.6984 13.625 18.7027 13.625 23.1508C13.625 27.6513 15.5992 31.6968 18.7311 34.5758C19.4935 35.2765 20.6796 35.2265 21.3804 34.4643C22.0812 33.7018 22.0313 32.5158 21.2689 31.815C18.8467 29.5885 17.375 26.5195 17.375 23.1508C17.375 19.8208 18.8129 16.7843 21.1852 14.5644Z" fill="#0F7275"/>
<path d="M42.5082 11.9503C41.7597 11.2346 40.5729 11.2609 39.8572 12.0093C39.1414 12.7576 39.1677 13.9445 39.9159 14.6603C42.2277 16.8714 43.6249 19.8682 43.6249 23.1509C43.6249 26.4723 42.1944 29.5016 39.8332 31.7198C39.0787 32.4291 39.0417 33.6156 39.7507 34.3703C40.4597 35.1251 41.6464 35.1621 42.4009 34.4528C45.4562 31.5823 47.3749 27.5873 47.3749 23.1509C47.3749 18.7668 45.5012 14.8132 42.5082 11.9503Z" fill="#0F7275"/>
<path fill-rule="evenodd" clip-rule="evenodd" d="M27.5817 27.0602C26.321 26.1525 25.5002 24.6721 25.5002 23C25.5002 20.2386 27.7387 18 30.5002 18C33.2617 18 35.5002 20.2386 35.5002 23C35.5002 24.6721 34.6795 26.1525 33.4187 27.0602L42.287 54.9315C42.558 55.7835 42.19 56.7082 41.4077 57.1407C40.6252 57.5735 39.6462 57.3935 39.069 56.7113L30.5002 46.5845L21.9316 56.7113C21.3541 57.3935 20.3752 57.5735 19.5928 57.1407C18.8105 56.7082 18.4424 55.7835 18.7135 54.9315L27.5817 27.0602ZM32.9565 43.6817L35.8667 47.1212L34.276 42.1222L32.9565 43.6817ZM32.9365 37.912C32.8957 37.9522 32.8565 37.9945 32.819 38.0387L30.5002 40.779L28.1815 38.0387C28.144 37.9945 28.1047 37.9522 28.064 37.912L30.5002 30.2555L32.9365 37.912ZM26.7245 42.1222L28.044 43.6817L25.1339 47.1212L26.7245 42.1222Z" fill="#0F7275"/>
</svg>
