<svg width="17" height="17" viewBox="0 0 17 17" fill="none" xmlns="http://www.w3.org/2000/svg">
<path d="M8.5 15.5C6.64348 15.5 4.86301 14.7625 3.55025 13.4497C2.2375 12.137 1.5 10.3565 1.5 8.5C1.5 6.64348 2.2375 4.86301 3.55025 3.55025C4.86301 2.2375 6.64348 1.5 8.5 1.5C10.3565 1.5 12.137 2.2375 13.4497 3.55025C14.7625 4.86301 15.5 6.64348 15.5 8.5C15.5 10.3565 14.7625 12.137 13.4497 13.4497C12.137 14.7625 10.3565 15.5 8.5 15.5ZM8.5 16.5C10.6217 16.5 12.6566 15.6571 14.1569 14.1569C15.6571 12.6566 16.5 10.6217 16.5 8.5C16.5 6.37827 15.6571 4.34344 14.1569 2.84315C12.6566 1.34285 10.6217 0.5 8.5 0.5C6.37827 0.5 4.34344 1.34285 2.84315 2.84315C1.34285 4.34344 0.5 6.37827 0.5 8.5C0.5 10.6217 1.34285 12.6566 2.84315 14.1569C4.34344 15.6571 6.37827 16.5 8.5 16.5Z" fill="#C0CD30"/>
<path d="M11.4694 5.46991C11.4622 5.47682 11.4556 5.48417 11.4494 5.49191L7.97636 9.91691L5.88336 7.82291C5.74119 7.69043 5.55314 7.61831 5.35884 7.62174C5.16454 7.62517 4.97915 7.70388 4.84174 7.84129C4.70433 7.97871 4.62562 8.16409 4.62219 8.35839C4.61876 8.55269 4.69088 8.74074 4.82336 8.88292L7.46936 11.5299C7.54064 11.6011 7.62553 11.6571 7.71895 11.6948C7.81237 11.7324 7.91241 11.7508 8.01311 11.749C8.11381 11.7471 8.2131 11.725 8.30506 11.6839C8.39702 11.6428 8.47977 11.5837 8.54836 11.5099L12.5404 6.51991C12.6763 6.37725 12.7506 6.18681 12.7473 5.98978C12.7439 5.79275 12.6631 5.60496 12.5224 5.46701C12.3817 5.32905 12.1923 5.25202 11.9953 5.25257C11.7982 5.25311 11.6093 5.33119 11.4694 5.46991Z" fill="#C0CD30"/>
</svg>
