<svg width="65" height="66" viewBox="0 0 65 66" fill="none" xmlns="http://www.w3.org/2000/svg">
<path d="M32.5002 11.3332H16.2502C13.2586 11.3332 10.8335 13.7583 10.8335 16.7499V49.25C10.8335 52.2413 13.2586 54.6666 16.2502 54.6666H48.7502C51.7418 54.6666 54.1668 52.2413 54.1668 49.25V33M49.8719 23.2883L52.8127 20.3478C54.9279 18.2324 54.9279 14.8028 52.8127 12.6875C50.6972 10.5721 47.2676 10.5721 45.1521 12.6875L42.2117 15.628M49.8719 23.2883L33.5236 39.6367C32.7675 40.3929 31.8044 40.9086 30.756 41.1182L22.7887 42.7115L24.3821 34.7444C24.5919 33.6957 25.1073 32.7326 25.8634 31.9765L42.2117 15.628M49.8719 23.2883L42.2117 15.628" stroke="#0F7275" stroke-width="5" stroke-linecap="round" stroke-linejoin="round"/>
</svg>
