<svg width="20" height="20" viewBox="0 0 20 20" fill="none" xmlns="http://www.w3.org/2000/svg">
<path fill-rule="evenodd" clip-rule="evenodd" d="M2.875 11.7812C3.20292 11.7812 3.46875 12.0471 3.46875 12.375C3.46875 13.5114 3.47001 14.3039 3.55041 14.9019C3.62851 15.4828 3.77136 15.7904 3.99047 16.0095C4.20957 16.2287 4.51719 16.3715 5.0981 16.4496C5.69608 16.53 6.48863 16.5312 7.625 16.5312H12.375C13.5114 16.5312 14.3039 16.53 14.9019 16.4496C15.4828 16.3715 15.7904 16.2287 16.0095 16.0095C16.2287 15.7904 16.3715 15.4828 16.4496 14.9019C16.53 14.3039 16.5312 13.5114 16.5312 12.375C16.5312 12.0471 16.7971 11.7812 17.125 11.7812C17.4529 11.7812 17.7188 12.0471 17.7188 12.375V12.4185C17.7188 13.5011 17.7188 14.3738 17.6265 15.0602C17.5307 15.7728 17.3258 16.3727 16.8493 16.8492C16.3727 17.3258 15.7728 17.5307 15.0602 17.6265C14.3738 17.7187 13.5011 17.7187 12.4185 17.7187H7.58156C6.49889 17.7187 5.62622 17.7187 4.93987 17.6265C4.22728 17.5307 3.6273 17.3258 3.15078 16.8493C2.67426 16.3727 2.4693 15.7728 2.3735 15.0602C2.28122 14.3738 2.28123 13.5011 2.28125 12.4185C2.28125 12.404 2.28125 12.3895 2.28125 12.375C2.28125 12.0471 2.54708 11.7812 2.875 11.7812Z" fill="white"/>
<path fill-rule="evenodd" clip-rule="evenodd" d="M9.99998 13.7604C10.1667 13.7604 10.3257 13.6904 10.4382 13.5673L13.6048 10.1038C13.8261 9.86177 13.8093 9.48621 13.5673 9.26494C13.3253 9.04367 12.9497 9.06045 12.7285 9.30246L10.5937 11.6373V2.875C10.5937 2.54708 10.3279 2.28125 9.99998 2.28125C9.67207 2.28125 9.40623 2.54708 9.40623 2.875V11.6373L7.27152 9.30246C7.05025 9.06045 6.67469 9.04367 6.43267 9.26494C6.19066 9.48621 6.17384 9.86177 6.39511 10.1038L9.56179 13.5673C9.67429 13.6904 9.83326 13.7604 9.99998 13.7604Z" fill="white"/>
</svg>
