<svg width="22" height="23" viewBox="0 0 22 23" fill="none" xmlns="http://www.w3.org/2000/svg">
<path d="M9.16669 8.75C9.67297 8.75 10.0834 9.1604 10.0834 9.66667C10.0834 10.173 9.67297 10.5834 9.16669 10.5834C8.66046 10.5834 8.25006 10.173 8.25006 9.66667C8.25006 9.1604 8.66046 8.75 9.16669 8.75Z" fill="#0F7275"/>
<path d="M11.9167 13.3333C11.9167 13.8396 12.3272 14.25 12.8334 14.25C13.3396 14.25 13.75 13.8396 13.75 13.3333C13.75 12.827 13.3396 12.4166 12.8334 12.4166C12.3272 12.4166 11.9167 12.827 11.9167 13.3333Z" fill="#0F7275"/>
<path d="M9.81487 13.9815L13.4815 10.3149C13.8396 9.9569 13.8396 9.37647 13.4815 9.01848C13.1236 8.66051 12.5432 8.66051 12.1852 9.01848L8.51854 12.6852C8.16057 13.0431 8.16057 13.6236 8.51854 13.9815C8.87653 14.3395 9.45691 14.3395 9.81487 13.9815Z" fill="#0F7275"/>
<path fill-rule="evenodd" clip-rule="evenodd" d="M14.9524 4.23222L13.9066 4.483L13.3444 3.56617C12.2713 1.81616 9.72868 1.81616 8.65566 3.56617L8.09349 4.483L7.04766 4.23222C5.05147 3.75354 3.25353 5.55147 3.73222 7.54766L3.983 8.59349L3.06617 9.15566C1.31616 10.2287 1.31616 12.7714 3.06617 13.8444L3.983 14.4066L3.73222 15.4524C3.25353 17.4486 5.05147 19.2465 7.04766 18.7678L8.09349 18.517L8.65566 19.4339C9.72868 21.1839 12.2713 21.1839 13.3444 19.4339L13.9066 18.517L14.9524 18.7678C16.9486 19.2465 18.7466 17.4486 18.2679 15.4524L18.0171 14.4066L18.9339 13.8444C20.6839 12.7714 20.6839 10.2287 18.9339 9.15566L18.0171 8.59349L18.2679 7.54766C18.7466 5.55147 16.9486 3.75354 14.9524 4.23222ZM10.2185 4.5245C10.5762 3.94116 11.4238 3.94116 11.7815 4.5245L12.6916 6.00877C12.8991 6.34717 13.3008 6.51356 13.6868 6.42101L15.3799 6.01501C16.0453 5.85545 16.6447 6.45476 16.4851 7.12016L16.0791 8.81325C15.9865 9.19925 16.1529 9.60097 16.4913 9.80844L17.9756 10.7186C18.5589 11.0763 18.5589 11.9238 17.9756 12.2815L16.4913 13.1916C16.1529 13.3991 15.9865 13.8008 16.0791 14.1868L16.4851 15.8799C16.6447 16.5453 16.0453 17.1446 15.3799 16.985L13.6868 16.579C13.3008 16.4865 12.8991 16.6529 12.6916 16.9913L11.7815 18.4756C11.4238 19.0589 10.5762 19.0589 10.2185 18.4756L9.30848 16.9913C9.10097 16.6529 8.69925 16.4865 8.31325 16.579L6.62016 16.985C5.95476 17.1446 5.35545 16.5453 5.51501 15.8799L5.92101 14.1868C6.01357 13.8008 5.84717 13.3991 5.50877 13.1916L4.0245 12.2815C3.44116 11.9238 3.44116 11.0763 4.0245 10.7186L5.50877 9.80844C5.84717 9.60097 6.01357 9.19925 5.92101 8.81325L5.51501 7.12016C5.35545 6.45476 5.95476 5.85545 6.62016 6.01501L8.31325 6.42101C8.69925 6.51356 9.10097 6.34717 9.30848 6.00877L10.2185 4.5245Z" fill="#0F7275"/>
</svg>
