<svg width="25" height="24" viewBox="0 0 25 24" fill="none" xmlns="http://www.w3.org/2000/svg">
<path opacity="0.5" fill-rule="evenodd" clip-rule="evenodd" d="M3.5 14.25C3.91421 14.25 4.25 14.5858 4.25 15C4.25 16.4354 4.25159 17.4365 4.35315 18.1919C4.4518 18.9257 4.63225 19.3142 4.90901 19.591C5.18577 19.8678 5.57435 20.0482 6.30812 20.1469C7.06347 20.2484 8.06459 20.25 9.5 20.25H15.5C16.9354 20.25 17.9365 20.2484 18.6919 20.1469C19.4257 20.0482 19.8142 19.8678 20.091 19.591C20.3678 19.3142 20.5482 18.9257 20.6469 18.1919C20.7484 17.4365 20.75 16.4354 20.75 15C20.75 14.5858 21.0858 14.25 21.5 14.25C21.9142 14.25 22.25 14.5858 22.25 15V15.0549C22.25 16.4225 22.25 17.5248 22.1335 18.3918C22.0125 19.2919 21.7536 20.0497 21.1517 20.6516C20.5497 21.2536 19.7919 21.5125 18.8918 21.6335C18.0248 21.75 16.9225 21.75 15.5549 21.75H9.44513C8.07754 21.75 6.97522 21.75 6.10825 21.6335C5.20814 21.5125 4.45027 21.2536 3.84835 20.6517C3.24643 20.0497 2.98754 19.2919 2.86652 18.3918C2.74996 17.5248 2.74998 16.4225 2.75 15.0549C2.75 15.0366 2.75 15.0183 2.75 15C2.75 14.5858 3.08579 14.25 3.5 14.25Z" fill="white"/>
<path fill-rule="evenodd" clip-rule="evenodd" d="M12.5 16.75C12.7106 16.75 12.9114 16.6615 13.0535 16.5061L17.0535 12.1311C17.333 11.8254 17.3118 11.351 17.0061 11.0715C16.7004 10.792 16.226 10.8132 15.9465 11.1189L13.25 14.0682V3C13.25 2.58579 12.9142 2.25 12.5 2.25C12.0858 2.25 11.75 2.58579 11.75 3V14.0682L9.05353 11.1189C8.77403 10.8132 8.29963 10.792 7.99393 11.0715C7.68823 11.351 7.66698 11.8254 7.94648 12.1311L11.9465 16.5061C12.0886 16.6615 12.2894 16.75 12.5 16.75Z" fill="white"/>
</svg>
