<svg width="19" height="26" viewBox="0 0 19 26" fill="none" xmlns="http://www.w3.org/2000/svg">
<path d="M9.67204 8.49961C9.67204 8.49961 8.60524 8.0912 8.51099 7.43282C8.41675 6.77444 8.69949 5.58061 8.69949 5.23503C8.69949 4.88945 8.47958 4.04257 8.79374 3.16291C9.10791 2.28325 9.95478 1.37354 9.95478 1.37354L10.3468 1.00474C10.4342 0.922782 10.5626 0.902293 10.6705 0.952833C11.0066 1.11128 11.6977 1.47325 11.7442 1.78059C11.807 2.189 11.6813 2.28325 11.7442 2.566C11.807 2.84875 12.3411 2.88016 12.3411 3.50849C12.3411 4.13682 12.4353 4.63812 12.6238 5.01512C12.8123 5.39211 12.938 6.27041 12.6238 6.89874C12.3097 7.52707 11.5884 8.05978 11.1172 8.31111C10.6459 8.56245 10.8344 8.59386 9.6734 8.49961H9.67204Z" stroke="#C0CD30" stroke-width="0.81956" stroke-miterlimit="10" stroke-linecap="round"/>
<path d="M10.1623 8.54895C10.1623 8.54895 9.97654 18.161 9.49163 21.3928C9.00673 24.6246 8.19946 25.0276 8.19946 25.0276" stroke="#C0CD30" stroke-width="0.81956" stroke-miterlimit="10" stroke-linecap="round"/>
<path d="M10.1622 9.24945C10.1622 9.24945 9.10225 8.46131 8.6392 8.32198C8.17614 8.18266 7.85105 8.06655 7.73495 7.97504C7.61884 7.88352 7.13257 7.85893 6.66952 7.85893C6.20647 7.85893 6.04392 7.6035 5.53443 7.6035C5.02494 7.6035 4.39934 7.62672 4.16713 7.6035C3.93492 7.58028 3.63442 7.64994 3.12493 7.81249C2.61543 7.97504 2.66187 7.99826 2.6851 8.29876C2.70832 8.59927 3.33391 9.29453 3.51968 9.54996C3.70545 9.80539 3.88985 9.92012 4.21494 10.0595C4.53867 10.1988 4.56189 10.3613 4.81732 10.8012C5.07275 11.241 5.07275 11.659 5.76801 11.9595C6.46327 12.2613 8.13107 12.1917 8.91921 12.1452C9.70736 12.0988 10.0775 11.8475 10.0775 11.8475C10.0775 11.8475 10.8657 11.241 11.5377 11.5196C12.2097 11.7983 12.7192 11.659 13.577 11.6125C14.4349 11.5661 14.8979 10.9173 15.5235 10.7779C16.1491 10.6386 16.7979 10.3982 16.8211 9.89281C16.8444 9.38741 17.0766 9.01724 17.4235 8.76181C17.7705 8.50639 17.9098 7.71005 17.8633 7.59941C17.8169 7.4874 17.6311 7.303 17.0752 7.25656C16.5193 7.21011 16.2638 6.97791 15.8472 6.97791C15.4306 6.97791 14.943 7.04757 13.924 7.34807C12.905 7.64995 12.8627 7.57072 12.0936 7.88079C11.3246 8.19085 10.8711 9.06232 10.5174 9.1552L10.1636 9.24809L10.1622 9.24945Z" stroke="#C0CD30" stroke-width="0.81956" stroke-miterlimit="10" stroke-linecap="round"/>
<path d="M10.0301 13.9074C10.0301 13.9074 10.6298 13.1424 10.9999 12.9348C11.3701 12.7272 12.2279 12.2887 12.8999 11.9514C13.572 11.614 14.4298 11.7533 14.8 11.7301C15.1701 11.7069 15.7507 11.5675 16.0047 11.5443C16.2588 11.5211 16.8161 11.3353 17.0934 11.5443C17.372 11.7533 16.9308 12.9116 16.6303 13.305C16.3284 13.6984 16.6768 13.096 15.7957 14.3936C14.9147 15.6913 15.7028 16.0382 14.1047 16.3633C12.5066 16.687 12.6677 16.7499 11.6255 16.7881C10.5833 16.8264 9.8949 16.3141 9.8949 16.3141C9.06851 16.7048 8.86771 16.4794 8.19704 16.4794C7.52637 16.4794 6.78194 16.4794 5.91457 16.3169C5.0472 16.1543 4.02412 15.4126 4.02412 15.4126C3.46818 14.9496 2.95869 14.8567 2.49427 14.2311C2.03122 13.6055 1.79901 13.2121 1.79901 12.7013C1.79901 12.1904 2.28528 12.0292 3.07343 11.9595C3.86157 11.8899 4.58005 12.1918 4.95022 12.1863C5.32039 12.1808 6.15497 12.2368 6.57158 12.1863C6.98819 12.1358 7.59057 12.3994 8.33227 12.5387C9.07397 12.678 10.026 13.1397 10.026 13.1397" stroke="#C0CD30" stroke-width="0.81956" stroke-miterlimit="10" stroke-linecap="round"/>
<path d="M9.63873 20.1332C9.63873 20.1332 9.17022 20.4869 8.75361 20.4869C8.337 20.4869 7.50241 21.1822 6.76071 21.1822C6.01901 21.1822 5.20764 20.6495 4.76781 20.2097C4.32798 19.7698 3.63272 19.9775 2.84458 19.5376C2.05644 19.0978 1.24644 18.5651 1.08389 18.3329C0.921347 18.1007 1.03745 17.9627 1.08389 17.8234C1.13033 17.6841 1.47728 17.4532 2.03458 17.3371C2.59052 17.221 3.4251 16.7115 4.00426 16.6883C4.58341 16.6651 5.69528 16.6883 6.13648 16.6883C6.57768 16.6883 7.29479 17.0585 7.96683 17.3371C8.63887 17.6158 9.77396 18.4531 9.77396 18.4531C9.77396 18.4531 10.4433 18.311 10.6536 18.2414C10.864 18.1717 11.2587 17.7319 11.6986 17.5693C12.1384 17.4068 12.8104 16.7976 13.436 16.7894C14.0616 16.7812 14.2009 16.5271 14.9891 16.3413C15.7772 16.1556 17.0216 15.7854 17.8712 16.1788C18.7195 16.5722 18.3493 16.6651 18.3493 17.1063C18.3493 17.5475 18.2796 18.0105 17.0517 18.7044C15.8237 19.3997 15.1981 20.1414 14.1094 20.1414C13.0208 20.1414 12.4648 20.3736 11.7464 20.3736C11.0279 20.3736 10.3982 20.1878 10.2725 20.1878C10.1469 20.1878 9.64146 20.1359 9.64146 20.1359L9.63873 20.1332Z" stroke="#C0CD30" stroke-width="0.81956" stroke-miterlimit="10" stroke-linecap="round"/>
</svg>
