<svg width="23" height="31" viewBox="0 0 23 31" fill="none" xmlns="http://www.w3.org/2000/svg">
<path d="M11.2714 9.97121C11.2714 9.97121 10.0079 9.48746 9.89626 8.70765C9.78462 7.92784 10.1195 6.51382 10.1195 6.1045C10.1195 5.69518 9.85904 4.6921 10.2312 3.65019C10.6033 2.60828 11.6063 1.53078 11.6063 1.53078L12.0707 1.09395C12.1742 0.996881 12.3263 0.972613 12.4541 1.03247C12.8521 1.22015 13.6707 1.64888 13.7258 2.0129C13.8002 2.49665 13.6513 2.60828 13.7258 2.94318C13.8002 3.27808 14.4328 3.31529 14.4328 4.05951C14.4328 4.80373 14.5444 5.39749 14.7677 5.84402C14.9909 6.29055 15.1398 7.33084 14.7677 8.07506C14.3956 8.81928 13.5413 9.45025 12.9831 9.74794C12.425 10.0456 12.6483 10.0828 11.2731 9.97121H11.2714Z" stroke="#0F7275" stroke-width="1.5" stroke-miterlimit="10" stroke-linecap="round"/>
<path d="M11.8522 10.0296C11.8522 10.0296 11.6321 21.4146 11.0578 25.2424C10.4834 29.0703 9.52728 29.5476 9.52728 29.5476" stroke="#0F7275" stroke-width="1.5" stroke-miterlimit="10" stroke-linecap="round"/>
<path d="M11.8518 10.8592C11.8518 10.8592 10.5964 9.92571 10.0479 9.76069C9.49945 9.59566 9.11439 9.45814 8.97687 9.34975C8.83936 9.24135 8.26339 9.21223 7.71494 9.21223C7.16648 9.21223 6.97395 8.90969 6.37049 8.90969C5.76702 8.90969 5.02604 8.93719 4.751 8.90969C4.47596 8.88218 4.12003 8.96469 3.51656 9.15722C2.9131 9.34975 2.96811 9.37725 2.99561 9.73318C3.02311 10.0891 3.7641 10.9126 3.98413 11.2152C4.20416 11.5177 4.42257 11.6536 4.80762 11.8186C5.19106 11.9836 5.21856 12.1762 5.5211 12.6971C5.82365 13.2181 5.82365 13.7131 6.64714 14.0691C7.47064 14.4266 9.44606 14.3441 10.3796 14.2891C11.3131 14.2341 11.7515 13.9364 11.7515 13.9364C11.7515 13.9364 12.685 13.2181 13.481 13.5481C14.277 13.8782 14.8805 13.7131 15.8965 13.6581C16.9125 13.6031 17.461 12.8346 18.202 12.6696C18.943 12.5046 19.7114 12.2198 19.7389 11.6212C19.7664 11.0226 20.0415 10.5842 20.4524 10.2816C20.8634 9.9791 21.0284 9.03588 20.9734 8.90483C20.9184 8.77217 20.6983 8.55375 20.0399 8.49875C19.3814 8.44374 19.0789 8.1687 18.5854 8.1687C18.092 8.1687 17.5144 8.25121 16.3074 8.60714C15.1005 8.96469 15.0504 8.87086 14.1395 9.23811C13.2286 9.60537 12.6915 10.6376 12.2725 10.7476L11.8534 10.8576L11.8518 10.8592Z" stroke="#0F7275" stroke-width="1.5" stroke-miterlimit="10" stroke-linecap="round"/>
<path d="M11.6954 16.3764C11.6954 16.3764 12.4056 15.4704 12.8441 15.2244C13.2825 14.9785 14.2985 14.4592 15.0945 14.0596C15.8905 13.66 16.9065 13.825 17.345 13.7975C17.7834 13.77 18.471 13.6049 18.772 13.5774C19.0729 13.5499 19.733 13.3299 20.0614 13.5774C20.3914 13.825 19.8689 15.1969 19.5129 15.6629C19.1554 16.1288 19.5679 15.4153 18.5244 16.9523C17.4809 18.4893 18.4144 18.9002 16.5215 19.2853C14.6286 19.6687 14.8195 19.7431 13.5851 19.7884C12.3506 19.8337 11.5352 19.227 11.5352 19.227C10.5564 19.6898 10.3186 19.4228 9.52421 19.4228C8.72983 19.4228 7.8481 19.4228 6.82075 19.2303C5.7934 19.0378 4.58162 18.1593 4.58162 18.1593C3.92314 17.6108 3.31968 17.5008 2.7696 16.7598C2.22114 16.0188 1.94611 15.5529 1.94611 14.9478C1.94611 14.3427 2.52207 14.1518 3.45558 14.0693C4.38909 13.9868 5.24009 14.3443 5.67853 14.3378C6.11697 14.3314 7.10549 14.3977 7.59894 14.3378C8.09239 14.278 8.80587 14.5902 9.68438 14.7553C10.5629 14.9203 11.6905 15.4671 11.6905 15.4671" stroke="#0F7275" stroke-width="1.5" stroke-miterlimit="10" stroke-linecap="round"/>
<path d="M11.2319 23.7506C11.2319 23.7506 10.6769 24.1696 10.1835 24.1696C9.69004 24.1696 8.70152 24.9931 7.82301 24.9931C6.94451 24.9931 5.9835 24.3622 5.46254 23.8412C4.94159 23.3203 4.11809 23.5662 3.18458 23.0452C2.25107 22.5243 1.29168 21.8933 1.09915 21.6183C0.906623 21.3432 1.04414 21.1798 1.09915 21.0148C1.15416 20.8498 1.5651 20.5763 2.22519 20.4388C2.88366 20.3013 3.87218 19.6978 4.55815 19.6703C5.24413 19.6428 6.56108 19.6703 7.08365 19.6703C7.60622 19.6703 8.4556 20.1088 9.25159 20.4388C10.0476 20.7689 11.392 21.7606 11.392 21.7606C11.392 21.7606 12.1848 21.5924 12.4339 21.5099C12.6831 21.4273 13.1507 20.9064 13.6716 20.7139C14.1926 20.5213 14.9886 19.7998 15.7295 19.7901C16.4705 19.7804 16.6356 19.4794 17.5691 19.2594C18.5026 19.0394 19.9765 18.6009 20.9828 19.0669C21.9875 19.5328 21.549 19.6428 21.549 20.1654C21.549 20.688 21.4665 21.2364 20.012 22.0583C18.5576 22.8818 17.8166 23.7603 16.5272 23.7603C15.2377 23.7603 14.5792 24.0354 13.7282 24.0354C12.8772 24.0354 12.1314 23.8153 11.9826 23.8153C11.8337 23.8153 11.2351 23.7538 11.2351 23.7538L11.2319 23.7506Z" stroke="#0F7275" stroke-width="1.5" stroke-miterlimit="10" stroke-linecap="round"/>
</svg>
