<svg width="100" height="100" viewBox="0 0 85 118" fill="none" xmlns="http://www.w3.org/2000/svg">
<path d="M42.3186 38.8815C42.3186 38.8815 37.4205 36.9938 36.9924 33.9355C36.5642 30.8771 37.8592 25.351 37.8592 23.748C37.8592 22.145 36.8462 18.2219 38.2874 14.1511C39.7286 10.0803 43.6136 5.86192 43.6136 5.86192L46.0678 3.53125C46.0678 3.53125 51.5403 5.86192 51.8327 7.74966C52.1251 9.6374 51.5403 10.0803 51.8327 11.388C52.1251 12.6957 54.5689 12.8434 54.5689 15.7541C54.5689 18.6648 54.9971 20.9955 55.8639 22.7356C56.7307 24.4862 57.3051 28.557 55.8639 31.4677C54.4227 34.3784 51.1121 36.8462 48.9502 38.0168C46.7884 39.1874 47.6553 39.3245 42.3186 38.8921V38.8815Z" stroke="#C0CD30" stroke-width="4.44196" stroke-miterlimit="10" stroke-linecap="round"/>
<path d="M44.5723 39.1155C44.5723 39.1155 43.7264 83.6619 41.5019 98.6267C39.2774 113.602 35.5699 115.469 35.5699 115.469" stroke="#C0CD30" stroke-width="4.44196" stroke-miterlimit="10" stroke-linecap="round"/>
<path d="M44.5765 42.3624C44.5765 42.3624 39.7098 38.7134 37.5898 38.0701C35.4593 37.4268 33.9763 36.889 33.4437 36.4566C32.9111 36.0242 30.6762 35.9187 28.5561 35.9187C26.4361 35.9187 25.6841 34.7376 23.3448 34.7376C21.0054 34.7376 18.1334 34.843 17.0682 34.7376C16.0029 34.6321 14.6244 34.9485 12.285 35.7078C9.94566 36.4566 10.1545 36.562 10.2694 37.9646C10.3843 39.3673 13.2458 42.5838 14.1022 43.765C14.9586 44.9461 15.8045 45.484 17.2875 46.1273C18.7809 46.7706 18.8854 47.5193 20.055 49.5653C21.2247 51.6007 21.2247 53.5411 24.41 54.9332C27.5953 56.3253 35.2504 56.0089 38.8744 55.7874C42.4878 55.5765 44.1901 54.4059 44.1901 54.4059C44.1901 54.4059 47.8036 51.6007 50.8845 52.8873C53.9653 54.1739 56.3047 53.5306 60.2419 53.3197C64.1791 53.1088 66.2992 50.1031 69.1711 49.4493C72.0431 48.7954 75.0195 47.6881 75.124 45.3469C75.2284 43.0056 76.2937 41.2867 77.8915 40.1055C79.4894 38.9243 80.1265 35.2332 79.9071 34.7165C79.6983 34.1997 78.8419 33.3455 76.2937 33.124C73.7454 32.9131 72.5758 31.8374 70.6541 31.8374C68.7325 31.8374 66.508 32.1643 61.8293 33.5564C57.1506 34.9485 56.9626 34.5899 53.4327 36.0242C49.9028 37.4584 47.8245 41.4976 46.2058 41.93L44.587 42.3624H44.5765Z" stroke="#C0CD30" stroke-width="4.44196" stroke-miterlimit="10" stroke-linecap="round"/>
<path d="M43.9696 63.9376C43.9696 63.9376 46.7162 60.3941 48.4185 59.4239C50.1208 58.4536 54.0581 56.4288 57.1389 54.868C60.2198 53.3072 64.157 53.9505 65.8593 53.845C67.5616 53.7396 70.2143 53.0962 71.3839 52.9908C72.5536 52.8853 75.1019 52.0205 76.3864 52.9908C77.6605 53.961 75.6449 59.3289 74.2559 61.1534C72.8774 62.9779 74.4648 60.1832 70.4231 66.205C66.3815 72.2162 69.995 73.8297 62.6636 75.3273C55.3322 76.8248 56.0737 77.1201 51.2905 77.2994C46.5074 77.4787 43.3534 75.1058 43.3534 75.1058C39.5624 76.9197 38.6434 75.8757 35.5625 75.8757C32.4817 75.8757 29.0666 75.8757 25.0876 75.1269C21.1086 74.3781 16.4195 70.9401 16.4195 70.9401C13.8712 68.7887 11.5319 68.3669 9.40137 65.4667C7.27088 62.5666 6.21608 60.7421 6.21608 58.3798C6.21608 56.0175 8.451 55.2687 12.0645 54.9418C15.678 54.6149 18.9781 56.0175 20.6804 55.9964C22.3827 55.9753 26.2051 56.2284 28.1267 55.9964C30.0379 55.7644 32.8054 56.9877 36.21 57.631C39.6146 58.2744 43.98 60.4152 43.98 60.4152" stroke="#C0CD30" stroke-width="4.44196" stroke-miterlimit="10" stroke-linecap="round"/>
<path d="M42.1713 92.7937C42.1713 92.7937 40.0199 94.4283 38.1087 94.4283C36.1976 94.4283 32.3648 97.6449 28.9602 97.6449C25.5556 97.6449 21.8376 95.1771 19.8116 93.1312C17.7855 91.0852 14.6002 92.0554 10.9868 90.0201C7.3733 87.9847 3.64494 85.5064 2.90345 84.4412C2.16196 83.3761 2.69458 82.7222 2.90345 82.0789C3.11232 81.4356 4.71019 80.3599 7.25842 79.8221C9.80665 79.2842 13.6394 76.9219 16.2921 76.8164C18.9448 76.711 24.0517 76.8164 26.0777 76.8164C28.1038 76.8164 31.3935 78.5354 34.4744 79.8221C37.5552 81.1087 42.7666 84.9896 42.7666 84.9896C42.7666 84.9896 45.837 84.3358 46.7978 84.0088C47.7586 83.6819 49.5758 81.6465 51.5914 80.8978C53.607 80.149 56.6983 77.3227 59.5703 77.2805C62.4422 77.2488 63.0793 76.0677 66.6928 75.2029C70.3063 74.3487 76.0189 72.6297 79.9143 74.4541C83.8098 76.2786 82.1075 76.711 82.1075 78.7464C82.1075 80.7818 81.7837 82.9331 76.1547 86.1602C70.5256 89.3873 67.6432 92.8148 62.6511 92.8148C57.6591 92.8148 55.1004 93.8905 51.8107 93.8905C48.521 93.8905 45.6281 93.0362 45.0537 93.0362C44.4793 93.0362 42.1608 92.7937 42.1608 92.7937H42.1713Z" stroke="#C0CD30" stroke-width="4.44196" stroke-miterlimit="10" stroke-linecap="round"/>
</svg>
