<svg width="75" height="76" viewBox="0 0 75 76" fill="none" xmlns="http://www.w3.org/2000/svg">
<path fill-rule="evenodd" clip-rule="evenodd" d="M35.5098 51.9212C35.4417 55.297 32.7302 57.9841 29.4383 57.9379C26.1464 57.8915 23.5077 55.1294 23.5299 51.7527C23.5521 48.3763 26.2269 45.6506 29.519 45.65C31.1243 45.6668 32.6575 46.3369 33.7808 47.5129C34.9043 48.689 35.5263 50.2746 35.5098 51.9212Z" stroke="#0F7275" stroke-width="4" stroke-linecap="round" stroke-linejoin="round"/>
<path fill-rule="evenodd" clip-rule="evenodd" d="M64.0424 51.9212C63.9744 55.297 61.2628 57.9841 57.9709 57.9379C54.679 57.8915 52.0404 55.1294 52.0626 51.7527C52.0849 48.3763 54.7595 45.6506 58.0517 45.65C59.657 45.6668 61.1901 46.3369 62.3134 47.5129C63.437 48.689 64.0589 50.2746 64.0424 51.9212Z" stroke="#0F7275" stroke-width="4" stroke-linecap="round" stroke-linejoin="round"/>
<path d="M51.3554 54.0846C52.5502 54.0846 53.5189 53.1159 53.5189 51.9211C53.5189 50.7263 52.5502 49.7577 51.3554 49.7577V54.0846ZM35.5097 49.7577C34.3148 49.7577 33.3462 50.7263 33.3462 51.9211C33.3462 53.1159 34.3148 54.0846 35.5097 54.0846V49.7577ZM49.2032 51.9211C49.2032 53.1159 50.1716 54.0846 51.3667 54.0846C52.5615 54.0846 53.5301 53.1159 53.5301 51.9211H49.2032ZM53.5301 36.7278C53.5301 35.533 52.5615 34.5644 51.3667 34.5644C50.1716 34.5644 49.2032 35.533 49.2032 36.7278H53.5301ZM51.3667 49.7577C50.1716 49.7577 49.2032 50.7263 49.2032 51.9211C49.2032 53.1159 50.1716 54.0846 51.3667 54.0846V49.7577ZM52.0725 54.0846C53.2673 54.0846 54.236 53.1159 54.236 51.9211C54.236 50.7263 53.2673 49.7577 52.0725 49.7577V54.0846ZM64.0068 49.7582C62.8122 49.7842 61.8649 50.7733 61.8909 51.9681C61.9166 53.1627 62.906 54.11 64.1005 54.084L64.0068 49.7582ZM70.3846 45.1682L72.5478 45.1302C72.5458 45.0185 72.5351 44.9075 72.5161 44.7976L70.3846 45.1682ZM71.0481 36.3572C70.8433 35.18 69.7229 34.3916 68.5457 34.5964C67.3685 34.8012 66.5804 35.9213 66.7849 37.0985L71.0481 36.3572ZM51.3551 21.0586C50.1603 21.0586 49.1917 22.0272 49.1917 23.2221C49.1917 24.4169 50.1603 25.3855 51.3551 25.3855V21.0586ZM61.3988 23.2221V25.3856L61.4126 25.3855L61.3988 23.2221ZM67.7409 29.975L65.5795 29.8827C65.5728 30.0378 65.5829 30.1931 65.6095 30.346L67.7409 29.975ZM66.7849 37.0985C66.9897 38.2757 68.1104 39.0641 69.2876 38.8593C70.4648 38.6542 71.2532 37.5341 71.0481 36.3572L66.7849 37.0985ZM53.5186 23.2221C53.5186 22.0272 52.5502 21.0586 51.3551 21.0586C50.1603 21.0586 49.1917 22.0272 49.1917 23.2221H53.5186ZM49.1917 36.7278C49.1917 37.9227 50.1603 38.8913 51.3551 38.8913C52.5502 38.8913 53.5186 37.9227 53.5186 36.7278H49.1917ZM49.1917 23.2221C49.1917 24.4169 50.1603 25.3855 51.3551 25.3855C52.5502 25.3855 53.5186 24.4169 53.5186 23.2221H49.1917ZM51.3551 20.9144L49.1917 20.9005V20.9144H51.3551ZM48.3626 17.8077L48.375 15.6442H48.3626V17.8077ZM21.4049 17.8077V15.6442L21.3946 15.6442L21.4049 17.8077ZM18.4097 20.9086H20.5731L20.5731 20.8988L18.4097 20.9086ZM18.4097 48.8173L20.5731 48.8271V48.8173H18.4097ZM21.4049 51.9182L21.3946 54.0817H21.4049V51.9182ZM23.5172 54.0817C24.712 54.0817 25.6806 53.113 25.6806 51.9182C25.6806 50.7234 24.712 49.7548 23.5172 49.7548V54.0817ZM51.3609 34.5615C50.1661 34.5615 49.1974 35.5302 49.1974 36.725C49.1974 37.9198 50.1661 38.8884 51.3609 38.8884V34.5615ZM68.9221 38.8884C70.117 38.8884 71.0856 37.9198 71.0856 36.725C71.0856 35.5302 70.117 34.5615 68.9221 34.5615V38.8884ZM2.88465 21.4134C1.6898 21.4134 0.721191 22.3821 0.721191 23.5769C0.721191 24.7717 1.6898 25.7403 2.88465 25.7403V21.4134ZM11.6878 25.7403C12.8826 25.7403 13.8512 24.7717 13.8512 23.5769C13.8512 22.3821 12.8826 21.4134 11.6878 21.4134V25.7403ZM5.69715 30.0673C4.50232 30.0673 3.53369 31.0359 3.53369 32.2307C3.53369 33.4255 4.50232 34.3942 5.69715 34.3942V30.0673ZM11.3222 34.3942C12.517 34.3942 13.4856 33.4255 13.4856 32.2307C13.4856 31.0359 12.517 30.0673 11.3222 30.0673V34.3942ZM7.41278 38.7211C6.21794 38.7211 5.24932 39.6898 5.24932 40.8846C5.24932 42.0794 6.21794 43.048 7.41278 43.048V38.7211ZM11.3222 43.048C12.517 43.048 13.4856 42.0794 13.4856 40.8846C13.4856 39.6898 12.517 38.7211 11.3222 38.7211V43.048ZM51.3554 49.7577H35.5097V54.0846H51.3554V49.7577ZM53.5301 51.9211V36.7278H49.2032V51.9211H53.5301ZM51.3667 54.0846H52.0725V49.7577H51.3667V54.0846ZM64.1005 54.084C68.9066 53.9799 72.632 49.9253 72.5478 45.1302L68.2215 45.2063C68.2659 47.7223 66.3286 49.7078 64.0068 49.7582L64.1005 54.084ZM72.5161 44.7976L71.0481 36.3572L66.7849 37.0985L68.2532 45.5389L72.5161 44.7976ZM51.3551 25.3855L61.3988 25.3856V21.0586H51.3551V25.3855ZM61.4126 25.3855C62.5293 25.3783 63.6121 25.8404 64.4048 26.6845L67.5589 23.7223C65.9542 22.0137 63.7238 21.0435 61.3847 21.0587L61.4126 25.3855ZM64.4048 26.6845C65.1996 27.5307 65.6305 28.6861 65.5795 29.8827L69.9023 30.0672C70.0024 27.7229 69.1616 25.4288 67.5589 23.7223L64.4048 26.6845ZM65.6095 30.346L66.7849 37.0985L71.0481 36.3572L69.8723 29.6039L65.6095 30.346ZM49.1917 23.2221V36.7278H53.5186V23.2221H49.1917ZM53.5186 23.2221V20.9144H49.1917V23.2221H53.5186ZM53.5186 20.9282C53.5275 19.5524 53.0034 18.219 52.0448 17.224L48.9286 20.2258C49.0927 20.3963 49.1931 20.6381 49.1917 20.9005L53.5186 20.9282ZM52.0448 17.224C51.0848 16.2272 49.766 15.6522 48.375 15.6442L48.3505 19.9711C48.5571 19.9723 48.7662 20.0572 48.9286 20.2258L52.0448 17.224ZM48.3626 15.6442L21.4049 15.6442V19.9711H48.3626V15.6442ZM21.3946 15.6442C20.0048 15.6509 18.686 16.2239 17.725 17.2188L20.8372 20.2249C20.9997 20.0567 21.2089 19.9721 21.4153 19.9711L21.3946 15.6442ZM17.725 17.2188C16.7659 18.2118 16.2399 19.5435 16.2462 20.9185L20.5731 20.8988C20.5719 20.6365 20.6729 20.395 20.8372 20.2249L17.725 17.2188ZM16.2462 20.9086V48.8173H20.5731L20.5731 20.9086H16.2462ZM16.2462 48.8075C16.2399 50.1823 16.7659 51.5141 17.725 52.507L20.8372 49.5009C20.6729 49.3307 20.5719 49.0893 20.5731 48.8271L16.2462 48.8075ZM17.725 52.507C18.686 53.5019 20.0048 54.0751 21.3946 54.0817L21.4153 49.7548C21.2089 49.7539 20.9997 49.6691 20.8372 49.5009L17.725 52.507ZM21.4049 54.0817H23.5172V49.7548H21.4049V54.0817ZM51.3609 38.8884H68.9221V34.5615H51.3609V38.8884ZM2.88465 25.7403H11.6878V21.4134H2.88465V25.7403ZM5.69715 34.3942H11.3222V30.0673H5.69715V34.3942ZM7.41278 43.048H11.3222V38.7211H7.41278V43.048Z" fill="#0F7275"/>
</svg>
