<svg width="15" height="15" viewBox="0 0 15 15" fill="none" xmlns="http://www.w3.org/2000/svg">
<path fill-rule="evenodd" clip-rule="evenodd" d="M1.875 3.12549C1.875 2.43799 2.4375 1.87549 3.125 1.87549H7.5C7.84518 1.87549 8.125 2.15531 8.125 2.50049V2.50049C8.125 2.84567 7.84518 3.12549 7.5 3.12549H3.125V11.8755H7.5C7.84518 11.8755 8.125 12.1553 8.125 12.5005V12.5005C8.125 12.8457 7.84518 13.1255 7.5 13.1255H3.125C2.4375 13.1255 1.875 12.563 1.875 11.8755V3.12549ZM10.735 6.87549L9.59188 5.73236C9.34783 5.48832 9.34783 5.09265 9.59188 4.84861V4.84861C9.83592 4.60457 10.2316 4.60457 10.4756 4.84861L12.7947 7.16773C12.9785 7.35151 12.9785 7.64947 12.7947 7.83324L10.4756 10.1524C10.2316 10.3964 9.83592 10.3964 9.59188 10.1524V10.1524C9.34783 9.90832 9.34783 9.51265 9.59188 9.26861L10.735 8.12549H7.24375C6.89857 8.12549 6.61875 7.84567 6.61875 7.50049V7.50049C6.61875 7.15531 6.89857 6.87549 7.24375 6.87549H10.735Z" fill="black"/>
</svg>
