<svg width="23" height="26" viewBox="0 0 23 26" fill="none" xmlns="http://www.w3.org/2000/svg">
<path d="M0.965012 9.70225C1.07253 9.82151 1.18594 9.93529 1.30481 10.0432V23.9636C1.30481 24.265 1.42414 24.554 1.63656 24.7671C1.84897 24.9803 2.13707 25.1 2.43747 25.1H20.56C20.8604 25.1 21.1485 24.9803 21.3609 24.7671C21.5733 24.554 21.6926 24.265 21.6926 23.9636V10.0454C21.8115 9.93756 21.9249 9.82378 22.0324 9.70452C22.4609 9.15719 22.7584 8.51845 22.9019 7.83755C23.0455 7.15665 23.0313 6.45177 22.8604 5.77725L21.6586 0.961339C21.5975 0.715394 21.4562 0.497018 21.2571 0.340941C21.058 0.184864 20.8126 0.100046 20.56 0.0999756H2.43747C2.18481 0.100046 1.93944 0.184864 1.74036 0.340941C1.54128 0.497018 1.39993 0.715394 1.33879 0.961339L0.140437 5.77498C-0.0309076 6.44924 -0.0456686 7.15397 0.0972919 7.83486C0.240252 8.51575 0.537118 9.15463 0.965012 9.70225ZM12.6314 22.8272H10.3661V17.1454H12.6314V22.8272ZM19.4273 22.8272H14.8967V16.0091C14.8967 15.7077 14.7774 15.4186 14.5649 15.2055C14.3525 14.9924 14.0644 14.8727 13.764 14.8727H9.2334C8.933 14.8727 8.64491 14.9924 8.4325 15.2055C8.22008 15.4186 8.10075 15.7077 8.10075 16.0091V22.8272H3.57012V11.35C4.37207 11.5337 5.20879 11.4942 5.99003 11.2359C6.77128 10.9775 7.4674 10.5101 8.00334 9.88407C8.03279 9.91816 8.06337 9.95111 8.09395 9.9852C8.53442 10.4597 9.06908 10.8365 9.6635 11.0911C10.2579 11.3457 10.8989 11.4726 11.5452 11.4636C12.1762 11.4631 12.8004 11.3316 13.3783 11.0773C13.9563 10.8231 14.4755 10.4516 14.9035 9.98634C14.9341 9.95225 14.9646 9.91929 14.9941 9.8852C15.5302 10.5111 16.2263 10.9783 17.0076 11.2364C17.7888 11.4945 18.6255 11.5338 19.4273 11.35V17.0886V22.8272ZM2.33666 6.32611L3.32207 2.3727H19.6754L20.6608 6.32611C20.7455 6.66609 20.7518 7.02096 20.6793 7.36376C20.6068 7.70656 20.4574 8.02827 20.2424 8.30444C20.0274 8.58062 19.7525 8.804 19.4385 8.9576C19.1246 9.1112 18.7799 9.19098 18.4306 9.19088C17.8555 9.18722 17.3024 8.96863 16.8793 8.5778C16.4563 8.18697 16.1936 7.65196 16.1426 7.07725L16.095 6.50907C16.0673 6.21094 15.9234 5.93583 15.6946 5.74355C15.4659 5.55126 15.1707 5.45734 14.8733 5.4822C14.5758 5.50705 14.3002 5.64867 14.1063 5.87628C13.9124 6.10388 13.8158 6.39908 13.8377 6.6977C13.8651 7.01503 13.826 7.33461 13.7228 7.63583C13.6196 7.93706 13.4546 8.21324 13.2385 8.44657C13.0111 8.69161 12.7341 8.88486 12.4259 9.01326C12.1178 9.14166 11.7858 9.20224 11.4523 9.19088C11.1348 9.19084 10.8207 9.12478 10.5299 8.99688C10.2391 8.86898 9.97784 8.682 9.76266 8.44775C9.54748 8.2135 9.38301 7.93705 9.27964 7.63585C9.17626 7.33464 9.13623 7.01521 9.16205 6.6977C9.1868 6.39738 9.09164 6.09949 8.8975 5.86955C8.70336 5.63962 8.42614 5.49646 8.1268 5.47157C7.97834 5.45756 7.8286 5.47343 7.68633 5.51825C7.54407 5.56306 7.41216 5.63592 7.29833 5.73255C7.1845 5.82918 7.09105 5.94764 7.02345 6.08098C6.95585 6.21432 6.91547 6.35986 6.90466 6.50907L6.85709 7.07725C6.80606 7.65235 6.54307 8.18767 6.11952 8.57856C5.69598 8.96944 5.14234 9.18778 4.56686 9.19088C4.21757 9.19098 3.87286 9.1112 3.55891 8.9576C3.24496 8.804 2.97004 8.58062 2.75504 8.30444C2.54004 8.02827 2.39061 7.70656 2.31812 7.36376C2.24562 7.02096 2.25196 6.66609 2.33666 6.32611Z" fill="#0F7275"/>
</svg>
