<svg width="50" height="50" viewBox="0 0 50 50" fill="none" xmlns="http://www.w3.org/2000/svg">
<path d="M29.1493 29.0454H35.3734M29.1493 20.7467H35.3734M18.7759 19.7094V17.6347M18.7759 19.7094H22.9255M18.7759 19.7094C15.0439 19.7093 14.6304 20.6061 14.6268 22.4739C14.6231 24.3417 14.6268 24.8961 18.7761 24.8961C22.9255 24.8961 22.9255 25.3224 22.9255 27.3166C22.9255 28.8152 22.9255 30.0828 18.7761 30.0828M18.7761 30.0828L18.7759 32.1575M18.7761 30.0828H14.6268M12.9668 39.4188H37.0331C39.3569 39.4188 40.519 39.4188 41.4065 38.9665C42.1872 38.5688 42.8221 37.934 43.2198 37.1533C43.6721 36.2657 43.6721 35.1037 43.6721 32.7799V17.0123C43.6721 14.6885 43.6721 13.5265 43.2198 12.6389C42.8221 11.8582 42.1872 11.2234 41.4065 10.8256C40.519 10.3734 39.3569 10.3734 37.0331 10.3734H12.9668C10.643 10.3734 9.48106 10.3734 8.59347 10.8256C7.81271 11.2234 7.17794 11.8582 6.78014 12.6389C6.32788 13.5265 6.32788 14.6885 6.32788 17.0123V32.7799C6.32788 35.1037 6.32788 36.2657 6.78014 37.1533C7.17794 37.934 7.81271 38.5688 8.59347 38.9665C9.48106 39.4188 10.643 39.4188 12.9668 39.4188Z" stroke="#0F7275" stroke-width="2.5" stroke-linecap="round" stroke-linejoin="round"/>
</svg>
