<svg width="23" height="23" viewBox="0 0 23 23" fill="none" xmlns="http://www.w3.org/2000/svg">
<g clip-path="url(#clip0_2722_3543)">
<path d="M6.89619 12.9245C7.09888 12.9245 7.2632 12.7601 7.2632 12.5574C7.2632 12.3547 7.09888 12.1904 6.89619 12.1904C6.69349 12.1904 6.52917 12.3547 6.52917 12.5574C6.52917 12.7601 6.69349 12.9245 6.89619 12.9245Z" fill="#0F7275"/>
<path d="M5.42927 14.3927C5.63196 14.3927 5.79628 14.2283 5.79628 14.0256C5.79628 13.8229 5.63196 13.6586 5.42927 13.6586C5.22657 13.6586 5.06226 13.8229 5.06226 14.0256C5.06226 14.2283 5.22657 14.3927 5.42927 14.3927Z" fill="#0F7275"/>
<path d="M8.36469 14.3925C8.56739 14.3925 8.7317 14.2282 8.7317 14.0255C8.7317 13.8228 8.56739 13.6585 8.36469 13.6585C8.162 13.6585 7.99768 13.8228 7.99768 14.0255C7.99768 14.2282 8.162 14.3925 8.36469 14.3925Z" fill="#0F7275"/>
<path d="M16.7619 14.6809C16.9646 14.6809 17.1289 14.5166 17.1289 14.3139C17.1289 14.1112 16.9646 13.9469 16.7619 13.9469C16.5592 13.9469 16.3949 14.1112 16.3949 14.3139C16.3949 14.5166 16.5592 14.6809 16.7619 14.6809Z" fill="#0F7275"/>
<path d="M18.2304 16.1486C18.4331 16.1486 18.5974 15.9843 18.5974 15.7816C18.5974 15.5789 18.4331 15.4146 18.2304 15.4146C18.0277 15.4146 17.8634 15.5789 17.8634 15.7816C17.8634 15.9843 18.0277 16.1486 18.2304 16.1486Z" fill="#0F7275"/>
<path d="M11.4991 4.40413C11.7018 4.40413 11.8661 4.23981 11.8661 4.03712C11.8661 3.83442 11.7018 3.6701 11.4991 3.6701C11.2964 3.6701 11.1321 3.83442 11.1321 4.03712C11.1321 4.23981 11.2964 4.40413 11.4991 4.40413Z" fill="#0F7275"/>
<path d="M22.015 18.3573C21.9549 16.6022 21.4575 14.8883 20.567 13.3793L13.9243 2.11988C13.4198 1.26511 12.4909 0.734131 11.5 0.734131C10.5091 0.734131 9.58017 1.26515 9.07566 2.11993L6.1273 7.11739C6.02429 7.29196 6.08233 7.51702 6.2569 7.62003C6.43151 7.72299 6.65648 7.66499 6.75953 7.49043L9.70789 2.49296C10.0809 1.86086 10.7676 1.4682 11.5 1.4682C12.2324 1.4682 12.9191 1.86086 13.2922 2.49291L19.9349 13.7524C20.7576 15.1467 21.2191 16.7294 21.2798 18.3512H1.72019C1.78088 16.7295 2.24241 15.1467 3.06511 13.7523L6.01351 8.7548C6.11652 8.58023 6.05848 8.35517 5.88391 8.25217C5.70921 8.14911 5.48429 8.2072 5.38128 8.38176L2.43292 13.3792C1.54253 14.8882 1.04506 16.6021 0.984957 18.3572C0.432193 18.4156 0 18.8843 0 19.4522C0 20.0485 0.476486 20.5352 1.06865 20.5524L1.28054 21.294C1.43624 21.8391 2.00226 22.266 2.56913 22.266H20.4308C20.9977 22.266 21.5637 21.8391 21.7194 21.2941L21.9313 20.5524C22.5235 20.5352 23 20.0485 23 19.4522C23 18.8843 22.5678 18.4155 22.015 18.3573ZM21.0136 21.0924C20.9479 21.3225 20.6702 21.532 20.4309 21.532H2.56917C2.32987 21.532 2.05212 21.3225 1.9864 21.0924L1.83236 20.5533H21.1677L21.0136 21.0924ZM21.8989 19.8192H1.10108C0.898662 19.8192 0.734068 19.6546 0.734068 19.4522C0.734068 19.2498 0.898707 19.0852 1.10108 19.0852H21.899C22.1014 19.0852 22.266 19.2498 22.266 19.4522C22.266 19.6546 22.1013 19.8192 21.8989 19.8192Z" fill="#0F7275"/>
</g>
<defs>
<clipPath id="clip0_2722_3543">
<rect width="23" height="23" fill="white"/>
</clipPath>
</defs>
</svg>
