<svg width="100" height="100" viewBox="0 0 113 107" fill="none" xmlns="http://www.w3.org/2000/svg">
<g filter="url(#filter0_d_2400_1003)">
<g clip-path="url(#clip0_2400_1003)">
<path d="M102.487 81.4903C102.224 73.8144 100.049 66.3186 96.1546 59.719L67.1027 10.4759C64.8963 6.73751 60.8336 4.41528 56.5 4.41528C52.1664 4.41528 48.1037 6.7377 45.8971 10.476L33.0025 32.3324C32.552 33.0959 32.8059 34.0802 33.5693 34.5307C34.333 34.981 35.3169 34.7274 35.7676 33.9639L48.6622 12.1075C50.2937 9.34303 53.297 7.62573 56.5 7.62573C59.703 7.62573 62.7063 9.34303 64.338 12.1073L93.3899 61.3504C96.9882 67.4485 99.0065 74.3706 99.2719 81.4634H13.7281C13.9935 74.3708 16.012 67.4485 19.6101 61.3502L32.5049 39.4936C32.9554 38.7301 32.7015 37.7459 31.9381 37.2954C31.174 36.8447 30.1903 37.0987 29.7398 37.8622L16.8452 59.7184C12.9511 66.3182 10.7754 73.8138 10.5125 81.4897C8.09502 81.7449 6.20483 83.795 6.20483 86.2787C6.20483 88.8866 8.28874 91.0153 10.8785 91.0906L11.8053 94.3338C12.4862 96.7177 14.9617 98.5849 17.4409 98.5849H95.5589C98.0381 98.5849 100.514 96.7175 101.195 94.334L102.121 91.0906C104.711 91.0153 106.795 88.8866 106.795 86.2787C106.795 83.795 104.905 81.7447 102.487 81.4903ZM98.1079 93.4521C97.8204 94.4584 96.6057 95.3747 95.5591 95.3747H17.4411C16.3945 95.3747 15.1798 94.4582 14.8923 93.4521L14.2187 91.0943H98.7817L98.1079 93.4521ZM101.98 87.8839H11.0204C10.1351 87.8839 9.41527 87.1638 9.41527 86.2787C9.41527 85.3935 10.1353 84.6736 11.0204 84.6736H101.98C102.865 84.6736 103.585 85.3936 103.585 86.2787C103.585 87.164 102.865 87.8839 101.98 87.8839Z" fill="#0F7275"/>
<path d="M36.3639 57.333C37.2504 57.333 37.969 56.6602 37.969 55.8303C37.969 55.0004 37.2504 54.3276 36.3639 54.3276C35.4774 54.3276 34.7588 55.0004 34.7588 55.8303C34.7588 56.6602 35.4774 57.333 36.3639 57.333Z" fill="#0F7275"/>
<path d="M29.9493 63.344C30.8358 63.344 31.5544 62.6712 31.5544 61.8413C31.5544 61.0114 30.8358 60.3386 29.9493 60.3386C29.0628 60.3386 28.3441 61.0114 28.3441 61.8413C28.3441 62.6712 29.0628 63.344 29.9493 63.344Z" fill="#0F7275"/>
<path d="M42.788 63.3425C43.6745 63.3425 44.3931 62.6697 44.3931 61.8398C44.3931 61.0099 43.6745 60.3372 42.788 60.3372C41.9015 60.3372 41.1828 61.0099 41.1828 61.8398C41.1828 62.6697 41.9015 63.3425 42.788 63.3425Z" fill="#0F7275"/>
<path d="M79.5117 64.5241C80.3982 64.5241 81.1168 63.8514 81.1168 63.0215C81.1168 62.1916 80.3982 61.5188 79.5117 61.5188C78.6252 61.5188 77.9066 62.1916 77.9066 63.0215C77.9066 63.8514 78.6252 64.5241 79.5117 64.5241Z" fill="#0F7275"/>
<path d="M85.935 70.5329C86.8214 70.5329 87.5401 69.8602 87.5401 69.0303C87.5401 68.2004 86.8214 67.5276 85.935 67.5276C85.0485 67.5276 84.3298 68.2004 84.3298 69.0303C84.3298 69.8602 85.0485 70.5329 85.935 70.5329Z" fill="#0F7275"/>
<path d="M56.4947 22.448C57.3811 22.448 58.0998 21.7752 58.0998 20.9453C58.0998 20.1154 57.3811 19.4426 56.4947 19.4426C55.6082 19.4426 54.8895 20.1154 54.8895 20.9453C54.8895 21.7752 55.6082 22.448 56.4947 22.448Z" fill="#0F7275"/>
</g>
</g>
<defs>
<filter id="filter0_d_2400_1003" x="0.21731" y="0.822771" width="112.565" height="106.145" filterUnits="userSpaceOnUse" color-interpolation-filters="sRGB">
<feFlood flood-opacity="0" result="BackgroundImageFix"/>
<feColorMatrix in="SourceAlpha" type="matrix" values="0 0 0 0 0 0 0 0 0 0 0 0 0 0 0 0 0 0 127 0" result="hardAlpha"/>
<feOffset dy="2.39501"/>
<feGaussianBlur stdDeviation="2.99376"/>
<feComposite in2="hardAlpha" operator="out"/>
<feColorMatrix type="matrix" values="0 0 0 0 0 0 0 0 0 0 0 0 0 0 0 0 0 0 0.1 0"/>
<feBlend mode="normal" in2="BackgroundImageFix" result="effect1_dropShadow_2400_1003"/>
<feBlend mode="normal" in="SourceGraphic" in2="effect1_dropShadow_2400_1003" result="shape"/>
</filter>
<clipPath id="clip0_2400_1003">
<rect x="6.20483" y="4.41528" width="100.59" height="94.1696" rx="14.9688" fill="white"/>
</clipPath>
</defs>
</svg>
