<svg width="36" height="36" viewBox="0 0 36 36" fill="none" xmlns="http://www.w3.org/2000/svg">
<g clip-path="url(#clip0_2501_1297)">
<path d="M16.3442 21.8621H7.5166V24.069H16.3442V21.8621Z" fill="#0F7275"/>
<path d="M21.8614 26.2759H7.5166V28.4828H21.8614V26.2759Z" fill="#0F7275"/>
<path d="M31.3333 2H4.66667C3.95969 2.00088 3.28193 2.28212 2.78202 2.78202C2.28212 3.28193 2.00088 3.95969 2 4.66667V31.3333C2.00088 32.0403 2.28212 32.7181 2.78202 33.218C3.28193 33.7179 3.95969 33.9991 4.66667 34H31.3333C32.0403 33.9991 32.7181 33.7179 33.218 33.218C33.7179 32.7181 33.9991 32.0403 34 31.3333V4.66667C33.9991 3.95969 33.7179 3.28193 33.218 2.78202C32.7181 2.28212 32.0403 2.00088 31.3333 2ZM20.6667 4.66667V10H15.3333V4.66667H20.6667ZM4.66667 31.3333V4.66667H12.6667V12.6667H23.3333V4.66667H31.3333L31.3349 31.3333H4.66667Z" fill="#0F7275"/>
</g>
<defs>
<clipPath id="clip0_2501_1297">
<rect width="36" height="36" fill="white"/>
</clipPath>
</defs>
</svg>
