<svg width="65" height="65" viewBox="0 0 65 65" fill="none" xmlns="http://www.w3.org/2000/svg">
<path d="M24.5146 58.0366H6.97607C3.75781 58.0366 1.13623 55.415 1.13623 52.1968V34.6519C1.13623 31.4336 3.75781 28.812 6.97607 28.812H24.521C27.7393 28.812 30.3608 31.4336 30.3608 34.6519V52.1968C30.3608 55.415 27.7393 58.0366 24.5146 58.0366ZM6.97607 30.7163C4.80518 30.7163 3.04053 32.481 3.04053 34.6519V52.1968C3.04053 54.3677 4.80518 56.1323 6.97607 56.1323H24.521C26.6919 56.1323 28.4565 54.3677 28.4565 52.1968V34.6519C28.4565 32.481 26.6919 30.7163 24.521 30.7163H6.97607Z" fill="#0F7275"/>
<path d="M13.5269 43.4243C13.5269 43.7161 13.5843 44.005 13.696 44.2745C13.8076 44.5441 13.9713 44.789 14.1776 44.9953C14.3839 45.2016 14.6288 45.3652 14.8983 45.4769C15.1679 45.5885 15.4568 45.646 15.7485 45.646C16.0403 45.646 16.3292 45.5885 16.5987 45.4769C16.8683 45.3652 17.1132 45.2016 17.3195 44.9953C17.5258 44.789 17.6894 44.5441 17.8011 44.2745C17.9127 44.005 17.9702 43.7161 17.9702 43.4243C17.9702 42.8351 17.7361 42.27 17.3195 41.8534C16.9029 41.4367 16.3378 41.2026 15.7485 41.2026C15.1593 41.2026 14.5942 41.4367 14.1776 41.8534C13.7609 42.27 13.5269 42.8351 13.5269 43.4243Z" fill="#0F7275"/>
<path d="M15.7485 46.5981C13.9966 46.5981 12.5747 45.1763 12.5747 43.4243C12.5747 41.6724 13.9966 40.2505 15.7485 40.2505C17.5005 40.2505 18.9224 41.6724 18.9224 43.4243C18.9224 45.1763 17.5005 46.5981 15.7485 46.5981ZM15.7485 42.1484C15.0503 42.1484 14.479 42.7197 14.479 43.418C14.479 44.1162 15.0503 44.6875 15.7485 44.6875C16.4468 44.6875 17.0181 44.1162 17.0181 43.418C17.0181 42.7197 16.4468 42.1484 15.7485 42.1484Z" fill="#0F7275"/>
<path d="M7.05859 36.042C7.05859 36.6312 7.29266 37.1963 7.70931 37.613C8.12595 38.0296 8.69105 38.2637 9.28027 38.2637C9.8695 38.2637 10.4346 38.0296 10.8512 37.613C11.2679 37.1963 11.502 36.6312 11.502 36.042C11.502 35.4528 11.2679 34.8877 10.8512 34.471C10.4346 34.0544 9.8695 33.8203 9.28027 33.8203C8.69105 33.8203 8.12595 34.0544 7.70931 34.471C7.29266 34.8877 7.05859 35.4528 7.05859 36.042Z" fill="#0F7275"/>
<path d="M9.28027 39.2158C7.52832 39.2158 6.10645 37.7939 6.10645 36.042C6.10645 34.29 7.52832 32.8682 9.28027 32.8682C11.0322 32.8682 12.4541 34.29 12.4541 36.042C12.4541 37.7939 11.0259 39.2158 9.28027 39.2158ZM9.28027 34.7725C8.58203 34.7725 8.01074 35.3438 8.01074 36.042C8.01074 36.7402 8.58203 37.3115 9.28027 37.3115C9.97852 37.3115 10.5498 36.7402 10.5498 36.042C10.5498 35.3438 9.97852 34.7725 9.28027 34.7725Z" fill="#0F7275"/>
<path d="M19.9951 36.042C19.9951 36.6312 20.2292 37.1963 20.6458 37.613C21.0625 38.0296 21.6276 38.2637 22.2168 38.2637C22.806 38.2637 23.3711 38.0296 23.7878 37.613C24.2044 37.1963 24.4385 36.6312 24.4385 36.042C24.4385 35.4528 24.2044 34.8877 23.7878 34.471C23.3711 34.0544 22.806 33.8203 22.2168 33.8203C21.6276 33.8203 21.0625 34.0544 20.6458 34.471C20.2292 34.8877 19.9951 35.4528 19.9951 36.042Z" fill="#0F7275"/>
<path d="M22.2168 39.2158C20.4648 39.2158 19.043 37.7939 19.043 36.042C19.043 34.29 20.4648 32.8682 22.2168 32.8682C23.9688 32.8682 25.3906 34.29 25.3906 36.042C25.3906 37.7939 23.9688 39.2158 22.2168 39.2158ZM22.2168 34.7725C21.5186 34.7725 20.9473 35.3438 20.9473 36.042C20.9473 36.7402 21.5186 37.3115 22.2168 37.3115C22.915 37.3115 23.4863 36.7402 23.4863 36.042C23.4863 35.3438 22.915 34.7725 22.2168 34.7725Z" fill="#0F7275"/>
<path d="M7.05859 50.8003C7.05859 51.3895 7.29266 51.9546 7.70931 52.3713C8.12595 52.7879 8.69105 53.022 9.28027 53.022C9.8695 53.022 10.4346 52.7879 10.8512 52.3713C11.2679 51.9546 11.502 51.3895 11.502 50.8003C11.502 50.2111 11.2679 49.646 10.8512 49.2293C10.4346 48.8127 9.8695 48.5786 9.28027 48.5786C8.69105 48.5786 8.12595 48.8127 7.70931 49.2293C7.29266 49.646 7.05859 50.2111 7.05859 50.8003Z" fill="#0F7275"/>
<path d="M9.28027 53.9741C7.52832 53.9741 6.10645 52.5522 6.10645 50.8003C6.10645 49.0483 7.52832 47.6265 9.28027 47.6265C11.0322 47.6265 12.4541 49.0483 12.4541 50.8003C12.4541 52.5522 11.0259 53.9741 9.28027 53.9741ZM9.28027 49.5308C8.58203 49.5308 8.01074 50.1021 8.01074 50.8003C8.01074 51.4985 8.58203 52.0698 9.28027 52.0698C9.97852 52.0698 10.5498 51.4985 10.5498 50.8003C10.5498 50.1021 9.97852 49.5308 9.28027 49.5308Z" fill="#0F7275"/>
<path d="M19.9951 50.8003C19.9951 51.3895 20.2292 51.9546 20.6458 52.3713C21.0625 52.7879 21.6276 53.022 22.2168 53.022C22.806 53.022 23.3711 52.7879 23.7878 52.3713C24.2044 51.9546 24.4385 51.3895 24.4385 50.8003C24.4385 50.2111 24.2044 49.646 23.7878 49.2293C23.3711 48.8127 22.806 48.5786 22.2168 48.5786C21.6276 48.5786 21.0625 48.8127 20.6458 49.2293C20.2292 49.646 19.9951 50.2111 19.9951 50.8003Z" fill="#0F7275"/>
<path d="M22.2168 53.9741C20.4648 53.9741 19.043 52.5522 19.043 50.8003C19.043 49.0483 20.4648 47.6265 22.2168 47.6265C23.9688 47.6265 25.3906 49.0483 25.3906 50.8003C25.3906 52.5522 23.9688 53.9741 22.2168 53.9741ZM22.2168 49.5308C21.5186 49.5308 20.9473 50.1021 20.9473 50.8003C20.9473 51.4985 21.5186 52.0698 22.2168 52.0698C22.915 52.0698 23.4863 51.4985 23.4863 50.8003C23.4863 50.1021 22.915 49.5308 22.2168 49.5308Z" fill="#0F7275"/>
<path d="M41.4819 41.9453C39.438 41.9453 37.4512 40.8725 36.3848 38.9683L27.7773 23.6831C27.0093 22.3247 26.8188 20.7441 27.2441 19.2461C27.6694 17.748 28.647 16.4912 30.0054 15.7295L45.2905 7.12206C46.6489 6.35399 48.2295 6.16356 49.7275 6.58886C51.2319 7.0078 52.4824 7.99169 53.2441 9.35009L61.8516 24.6352C62.6196 25.9936 62.81 27.5742 62.3848 29.0723C61.9658 30.5766 60.9819 31.8271 59.6235 32.5889L44.3384 41.1963C43.437 41.7041 42.4531 41.9453 41.4819 41.9453ZM48.147 8.27733C47.4805 8.27733 46.8203 8.44872 46.2236 8.78515L30.9385 17.3862C30.0244 17.9004 29.3642 18.7446 29.0786 19.7539C28.793 20.7632 28.9263 21.8296 29.4404 22.7436L38.0478 38.0288C39.1142 39.9204 41.52 40.5933 43.4116 39.5268L58.6968 30.9194C59.6108 30.4053 60.271 29.561 60.5566 28.5517C60.8423 27.5361 60.709 26.4761 60.1948 25.562L51.5874 10.2832C51.0732 9.36913 50.229 8.70897 49.2197 8.42333C48.8642 8.32177 48.5024 8.27733 48.147 8.27733Z" fill="#0F7275"/>
<path d="M42.5928 24.1592C42.5928 24.7484 42.8268 25.3135 43.2435 25.7301C43.6601 26.1468 44.2252 26.3809 44.8145 26.3809C45.4037 26.3809 45.9688 26.1468 46.3854 25.7301C46.8021 25.3135 47.0361 24.7484 47.0361 24.1592C47.0361 23.57 46.8021 23.0049 46.3854 22.5882C45.9688 22.1716 45.4037 21.9375 44.8145 21.9375C44.2252 21.9375 43.6601 22.1716 43.2435 22.5882C42.8268 23.0049 42.5928 23.57 42.5928 24.1592Z" fill="#0F7275"/>
<path d="M44.8208 27.3394C44.5352 27.3394 44.2432 27.3013 43.9639 27.2188C43.1451 26.9903 42.4659 26.4571 42.0533 25.7207C41.6343 24.9844 41.5328 24.1275 41.7613 23.3086C41.9898 22.4898 42.523 21.8106 43.2593 21.398C43.9956 20.979 44.8526 20.8775 45.6714 21.106C46.4903 21.3345 47.1695 21.8677 47.5821 22.604C48.001 23.3404 48.1026 24.1973 47.8741 25.0162C47.6456 25.835 47.1123 26.5142 46.376 26.9268C45.8872 27.1998 45.354 27.3394 44.8208 27.3394ZM44.8145 22.8897C44.5987 22.8897 44.3829 22.9468 44.1924 23.0547C43.8941 23.2198 43.6846 23.4927 43.5894 23.8228C43.5005 24.1529 43.5386 24.4956 43.7037 24.7876C43.8687 25.086 44.1416 25.2955 44.4717 25.3907C44.8018 25.4795 45.1446 25.4415 45.4366 25.2764C45.7349 25.1114 45.9444 24.8384 46.0396 24.5083C46.1285 24.1783 46.0904 23.8355 45.9253 23.5435C45.7603 23.2452 45.4873 23.0357 45.1573 22.9405C45.043 22.9024 44.9288 22.8897 44.8145 22.8897Z" fill="#0F7275"/>
<path d="M33.3379 20.9028C33.3379 21.4921 33.572 22.0572 33.9886 22.4738C34.4052 22.8904 34.9703 23.1245 35.5596 23.1245C36.1488 23.1245 36.7139 22.8904 37.1305 22.4738C37.5472 22.0572 37.7812 21.4921 37.7812 20.9028C37.7812 20.3136 37.5472 19.7485 37.1305 19.3319C36.7139 18.9152 36.1488 18.6812 35.5596 18.6812C34.9703 18.6812 34.4052 18.9152 33.9886 19.3319C33.572 19.7485 33.3379 20.3136 33.3379 20.9028Z" fill="#0F7275"/>
<path d="M35.5596 24.0767C34.4487 24.0767 33.3696 23.4927 32.7856 22.458C31.9287 20.9346 32.4683 18.9922 33.998 18.1353C35.5215 17.2783 37.4639 17.8179 38.3208 19.3477C39.1777 20.8711 38.6382 22.8135 37.1084 23.6704C36.626 23.9497 36.0864 24.0767 35.5596 24.0767ZM35.5532 19.6333C35.3437 19.6333 35.1279 19.6841 34.9312 19.7983C34.3218 20.1411 34.106 20.9219 34.4487 21.5312C34.7915 22.1406 35.5723 22.3564 36.1816 22.0137C36.791 21.6709 37.0068 20.8901 36.6641 20.2808C36.4292 19.8682 35.9976 19.6333 35.5532 19.6333Z" fill="#0F7275"/>
<path d="M51.8477 27.4155C51.8477 28.0048 52.0817 28.5698 52.4984 28.9865C52.915 29.4031 53.4801 29.6372 54.0693 29.6372C54.6586 29.6372 55.2237 29.4031 55.6403 28.9865C56.0569 28.5698 56.291 28.0048 56.291 27.4155C56.291 26.8263 56.0569 26.2612 55.6403 25.8446C55.2237 25.4279 54.6586 25.1938 54.0693 25.1938C53.4801 25.1938 52.915 25.4279 52.4984 25.8446C52.0817 26.2612 51.8477 26.8263 51.8477 27.4155Z" fill="#0F7275"/>
<path d="M54.0757 30.5894C52.9648 30.5894 51.8857 30.0054 51.3018 28.9707C50.4448 27.4473 50.9844 25.5049 52.5142 24.6479C54.0376 23.791 55.98 24.3306 56.8369 25.8604C57.6938 27.3838 57.1543 29.3262 55.6245 30.1831C55.1357 30.4624 54.6025 30.5894 54.0757 30.5894ZM54.0693 26.146C53.8599 26.146 53.644 26.1968 53.4473 26.311C52.8379 26.6538 52.6221 27.4346 52.9648 28.0439C53.3076 28.6533 54.0884 28.8691 54.6978 28.5264C55.3071 28.1836 55.5229 27.4028 55.1802 26.7935C54.9453 26.3745 54.5137 26.146 54.0693 26.146Z" fill="#0F7275"/>
</svg>
