<svg width="17" height="18" viewBox="0 0 17 18" fill="none" xmlns="http://www.w3.org/2000/svg">
<path fill-rule="evenodd" clip-rule="evenodd" d="M11.5635 11.0536L15.3744 14.8644C15.5083 14.9985 15.5835 15.1802 15.5835 15.3697C15.5834 15.5592 15.5081 15.7409 15.374 15.8749C15.24 16.0088 15.0582 16.084 14.8687 16.084C14.6792 16.0839 14.4975 16.0086 14.3636 15.8745L10.5527 12.0637C9.41354 12.946 7.98099 13.3613 6.5465 13.2249C5.11202 13.0885 3.78337 12.4108 2.83084 11.3296C1.87831 10.2484 1.37345 8.84489 1.41897 7.40466C1.46449 5.96443 2.05696 4.59563 3.07587 3.57672C4.09477 2.55782 5.46357 1.96534 6.9038 1.91982C8.34403 1.8743 9.74751 2.37916 10.8287 3.33169C11.9099 4.28423 12.5877 5.61288 12.724 7.04736C12.8604 8.48184 12.4452 9.9144 11.5628 11.0536H11.5635ZM7.08333 11.8335C8.2105 11.8335 9.29151 11.3857 10.0885 10.5887C10.8856 9.79165 11.3333 8.71065 11.3333 7.58348C11.3333 6.45631 10.8856 5.3753 10.0885 4.57827C9.29151 3.78124 8.2105 3.33348 7.08333 3.33348C5.95616 3.33348 4.87516 3.78124 4.07813 4.57827C3.2811 5.3753 2.83333 6.45631 2.83333 7.58348C2.83333 8.71065 3.2811 9.79165 4.07813 10.5887C4.87516 11.3857 5.95616 11.8335 7.08333 11.8335Z" fill="#FAFAFA"/>
</svg>
