<svg width="15" height="15" viewBox="0 0 15 15" fill="none" xmlns="http://www.w3.org/2000/svg">
<path fill-rule="evenodd" clip-rule="evenodd" d="M9.55304 9.09668H5.51709C4.32927 9.15566 3.27687 9.88122 2.79933 10.9705C2.22334 12.1012 3.37287 13.1701 4.70976 13.1701H10.3604C11.6981 13.1701 12.8476 12.1012 12.2708 10.9705C11.7933 9.88122 10.7409 9.15566 9.55304 9.09668Z" stroke="black" stroke-width="1.23963" stroke-linecap="round" stroke-linejoin="round"/>
<path fill-rule="evenodd" clip-rule="evenodd" d="M9.97914 4.20871C9.97914 5.55852 8.88494 6.65276 7.53509 6.65276C6.18532 6.65276 5.09106 5.55852 5.09106 4.20871C5.09106 2.85889 6.18532 1.76465 7.53509 1.76465C8.18333 1.76465 8.80502 2.02215 9.26336 2.4805C9.7217 2.93885 9.97914 3.5605 9.97914 4.20871Z" stroke="black" stroke-width="1.23963" stroke-linecap="round" stroke-linejoin="round"/>
</svg>
