<svg width="100" height="100" viewBox="0 0 89 121" fill="none" xmlns="http://www.w3.org/2000/svg">
<path d="M38.9555 87.7144C38.5382 89.1962 36.1627 89.0225 35.6063 87.5714C35.1997 86.5188 34.8359 85.6094 34.4614 84.7101C30.3097 74.8285 20.6366 68.4417 10.6747 68.9731C3.62318 69.3512 1.13001 73.5205 4.4578 79.5292C7.89259 85.7524 13.4995 89.5232 20.6045 90.5451C25.227 91.2093 30.0208 90.729 35.4672 90.6779C35.8738 90.6779 36.1841 91.056 36.0664 91.4341C32.942 101.203 25.9547 108.367 21.1716 116.92C20.8399 117.502 21.4499 118.167 22.1026 117.962C23.1619 117.635 24.0607 117.134 24.5529 116.378C28.4585 110.441 32.2464 104.422 35.831 98.3012C38.9448 92.9874 39.3193 92.7115 45.365 94.7144C55.9903 98.2194 67.4503 95.5625 73.496 88.1641C78.1292 82.5028 76.674 78.2211 69.462 76.3818C60.11 74.0008 48.8533 79.1306 42.9895 88.44C42.4759 89.2575 41.5878 89.3494 40.796 89.6151C40.3144 89.7786 40.8067 88.4706 40.9458 88.0006C42.4866 82.789 44.5731 80.1525 46.3066 74.9613C47.6548 70.9147 48.8854 69.5453 53.7112 71.4665C64.1761 75.6256 76.781 72.2125 82.5056 64.5279C86.5931 59.0404 84.7634 54.493 77.8082 53.277C67.5573 51.4887 59.6284 55.382 53.3581 62.8827C52.1917 64.2827 51.2287 65.8257 49.9982 67.7264C49.6986 68.1862 48.9603 67.9001 49.078 67.379C50.0624 62.9031 50.7044 59.0506 51.4855 55.2492C52.395 50.7938 53.754 49.7106 58.4835 50.7222C68.5311 52.8682 79.9055 47.6566 84.4531 39.5224C87.9307 33.2889 85.4268 29.0072 78.1292 28.7211C68.6488 28.3634 59.7462 33.902 55.2948 42.9457C54.717 44.1209 54.182 45.3063 53.5935 46.6041C53.3795 47.0639 52.5984 46.9413 52.6305 46.4405C53.0478 40.8406 53.7861 36.5385 57.36 32.0013C63.0846 24.7255 64.0905 16.0599 58.9757 7.81334C57.5847 5.57541 54.4174 2.96961 52.0954 3.00027C49.7521 3.02071 46.5741 5.65717 45.2901 7.93597C40.1753 16.9694 41.9088 25.7168 47.9865 33.8203C51.4962 38.5107 51.7316 40.8611 51.0468 46.0931C50.9719 46.6858 50.0517 46.7369 49.827 46.1851C49.3776 45.0814 48.9496 44.0493 48.5002 43.0275C44.0702 33.0334 33.9264 26.8306 23.8574 27.9342C18.4003 28.5371 16.0676 31.9502 18.1007 36.794C21.0004 43.7223 26.693 47.9734 34.119 49.2405C38.7522 50.0274 43.6208 49.5369 49.2706 49.4245C50.255 49.404 50.5118 50.7223 50.3192 51.642C49.1957 57.0375 48.6179 61.6973 47.5692 66.7863C47.4515 67.3279 46.7346 67.5425 46.3387 67.1337C45.0547 65.8257 44.4126 64.5075 43.7171 63.2097C38.7308 53.9105 28.9614 48.515 19.0102 49.5266C12.2797 50.2113 9.82934 54.4521 13.0715 59.9703C16.3137 65.4885 21.4498 69.0037 27.8165 69.8519C33.156 70.557 38.6666 70.0767 44.5732 70.0154C45.1403 70.0154 45.2473 71.2417 45.0761 71.7526C43.1821 77.3423 40.7104 81.4605 38.9555 87.7144Z" stroke="#0F7275" stroke-width="5" stroke-miterlimit="10"/>
</svg>
