<svg width="23" height="33" viewBox="0 0 23 33" fill="none" xmlns="http://www.w3.org/2000/svg">
<path d="M10.2824 23.6337C10.1796 24.0291 9.57402 23.9846 9.42909 23.6017C9.32428 23.3217 9.23068 23.081 9.13269 22.8404C8.06155 20.2175 5.59263 18.5309 3.06057 18.6892C1.2695 18.8012 0.640399 19.9148 1.49683 21.5104C2.3821 23.1607 3.8116 24.1563 5.62034 24.4171C6.7947 24.5874 8.01543 24.4527 9.39914 24.4309C9.50222 24.4303 9.58179 24.5307 9.55171 24.6318C8.77396 27.2376 7.00942 29.1543 5.8064 31.4382C5.72403 31.5945 5.87863 31.769 6.04498 31.7153C6.31419 31.6281 6.54361 31.4907 6.66738 31.2904C7.64882 29.703 8.60164 28.0962 9.50384 26.4611C10.2868 25.0417 10.3806 24.9687 11.9212 25.4899C14.6288 26.4074 17.5367 25.6788 19.0618 23.7021C20.2323 22.186 19.8525 21.0502 18.0161 20.5725C15.6349 19.9534 12.7837 21.3352 11.3056 23.8226C11.1753 24.0405 10.9518 24.066 10.7483 24.1375C10.6257 24.1821 10.7508 23.8326 10.7851 23.7074C11.169 22.3168 11.6932 21.6139 12.1276 20.2274C12.4653 19.1463 12.7722 18.7825 14.0035 19.2859C16.6705 20.3747 19.8688 19.4469 21.3123 17.394C22.3428 15.927 21.8704 14.7193 20.1008 14.4057C17.4925 13.946 15.4814 14.9958 13.9016 17.0013C13.6078 17.3737 13.3648 17.7876 13.0543 18.2961C12.9805 18.4172 12.7914 18.3438 12.8191 18.2032C13.0617 17.0087 13.2198 15.9835 13.4109 14.9691C13.636 13.7813 13.9785 13.4918 15.182 13.7519C17.7404 14.3085 20.6222 12.9024 21.7645 10.7307C22.638 9.06512 21.995 7.92869 20.1392 7.86563C17.7285 7.78407 15.4744 9.27181 14.3599 11.6867C14.2149 11.9991 14.0809 12.3157 13.9317 12.6609C13.8799 12.7841 13.6801 12.7502 13.688 12.6186C13.784 11.1267 13.9656 9.98076 14.866 8.76678C16.3079 6.82133 16.5524 4.51047 15.2384 2.32551C14.8816 1.7312 14.0725 1.04319 13.4826 1.05342C12.8883 1.06368 12.0834 1.76828 11.7604 2.37777C10.4748 4.78938 10.9323 7.11562 12.4873 9.264C13.3876 10.5063 13.4529 11.1309 13.2861 12.5268C13.2674 12.6848 13.035 12.7016 12.9771 12.5528C12.859 12.2597 12.7498 11.9862 12.6341 11.715C11.4904 9.06184 8.90338 7.42646 6.34376 7.7362C4.95657 7.90489 4.37008 8.81647 4.89344 10.105C5.64174 11.9469 7.09613 13.0674 8.98642 13.3934C10.1654 13.5966 11.4014 13.4574 12.8399 13.4199C13.0898 13.414 13.1578 13.7623 13.1111 14.0082C12.8349 15.4464 12.6956 16.6886 12.4365 18.0433C12.4089 18.1882 12.225 18.2464 12.1235 18.1374C11.7967 17.7907 11.6301 17.4408 11.4525 17.0976C10.1696 14.6317 7.67818 13.2085 5.14911 13.4939C3.43968 13.6866 2.82167 14.8198 3.65534 16.2819C4.48902 17.7461 5.79967 18.6744 7.41952 18.8903C8.77817 19.0704 10.1787 18.9324 11.6786 18.9077C11.8212 18.9068 11.8517 19.2334 11.8087 19.3697C11.3355 20.8617 10.715 21.9599 10.278 23.6294L10.2824 23.6337Z" stroke="#0F7275" stroke-width="1.5" stroke-miterlimit="10" stroke-linecap="round"/>
</svg>
