<svg width="15" height="15" viewBox="0 0 12 15" fill="none" xmlns="http://www.w3.org/2000/svg">
<path d="M5.33199 10.8131C5.28171 10.9934 4.99551 10.9723 4.92847 10.7956C4.87948 10.6675 4.83565 10.5568 4.79053 10.4473C4.29032 9.24434 3.12489 8.46682 1.92466 8.53151C1.07508 8.57754 0.774701 9.0851 1.17564 9.81659C1.58947 10.5742 2.265 11.0333 3.12103 11.1577C3.67796 11.2385 4.25551 11.1801 4.91171 11.1738C4.9607 11.1738 4.99809 11.2199 4.98391 11.2659C4.60746 12.4552 3.76562 13.3273 3.18935 14.3685C3.14939 14.4394 3.22287 14.5203 3.30151 14.4954C3.42914 14.4556 3.53743 14.3946 3.59674 14.3026C4.06729 13.5798 4.52367 12.8471 4.95554 12.1019C5.3307 11.455 5.37582 11.4214 6.10421 11.6652C7.38438 12.0919 8.7651 11.7685 9.49349 10.8678C10.0517 10.1786 9.87638 9.65736 9.00747 9.43343C7.88072 9.14357 6.52449 9.76808 5.81801 10.9014C5.75613 11.0009 5.64913 11.0121 5.55373 11.0445C5.49572 11.0644 5.55502 10.9051 5.57178 10.8479C5.75742 10.2134 6.00881 9.89248 6.21766 9.26051C6.3801 8.76787 6.52836 8.60117 7.10978 8.83505C8.37061 9.34137 9.88927 8.92586 10.579 7.99035C11.0715 7.32231 10.851 6.76871 10.013 6.62067C8.77799 6.40297 7.8227 6.87694 7.06724 7.79006C6.92672 7.9605 6.81069 8.14834 6.66243 8.37973C6.62633 8.43572 6.53738 8.40088 6.55156 8.33744C6.67017 7.79255 6.74752 7.32355 6.84163 6.86077C6.95121 6.31837 7.11494 6.18651 7.68476 6.30966C8.89531 6.57091 10.2657 5.93646 10.8136 4.94621C11.2326 4.18735 10.9309 3.6661 10.0517 3.63126C8.90949 3.58772 7.83689 4.26199 7.30058 5.36296C7.23097 5.50602 7.1665 5.65033 7.0956 5.80832C7.06982 5.8643 6.97571 5.84937 6.97957 5.78841C7.02985 5.10668 7.11881 4.58295 7.5494 4.0306C8.23911 3.14485 8.3603 2.08991 7.74406 1.08597C7.57647 0.813529 7.19487 0.496301 6.91511 0.500033C6.63278 0.502521 6.24989 0.823481 6.09519 1.1009C5.47896 2.20063 5.68781 3.26552 6.42007 4.25204C6.84292 4.82305 6.87128 5.10917 6.78877 5.74612C6.77975 5.81827 6.66888 5.82449 6.64181 5.75731C6.58766 5.62296 6.53609 5.49731 6.48195 5.37291C5.94822 4.15624 4.72607 3.40112 3.51294 3.53547C2.85545 3.60887 2.57441 4.02438 2.81936 4.61405C3.16873 5.4575 3.85458 5.97502 4.74927 6.12928C5.30749 6.22507 5.89408 6.16536 6.57477 6.15167C6.69337 6.14918 6.72431 6.30967 6.70111 6.42163C6.56574 7.07848 6.49613 7.64576 6.36979 8.26528C6.35561 8.33122 6.26923 8.35734 6.22153 8.30758C6.06683 8.14834 5.98947 7.98786 5.90568 7.82987C5.30491 6.6978 4.12788 6.04095 2.92894 6.16411C2.11804 6.24746 1.82281 6.76374 2.21344 7.43551C2.60406 8.10729 3.22287 8.53524 3.98994 8.63849C4.63325 8.72433 5.29718 8.66586 6.00881 8.6584C6.07714 8.6584 6.09003 8.80768 6.06941 8.86988C5.84122 9.55037 5.54342 10.0517 5.33199 10.8131Z" stroke="#0F7275" stroke-miterlimit="10"/>
</svg>
