<svg width="17" height="18" viewBox="0 0 17 18" fill="none" xmlns="http://www.w3.org/2000/svg">
<path fill-rule="evenodd" clip-rule="evenodd" d="M16.2916 3.33337C16.2916 2.15977 15.3403 1.20837 14.1666 1.20837H2.83331C1.65971 1.20837 0.708313 2.15977 0.708313 3.33337V10.4167C0.708313 11.5903 1.65971 12.5417 2.83331 12.5417H3.54165C3.93284 12.5417 4.24998 12.2246 4.24998 11.8334C4.24998 11.4422 3.93284 11.125 3.54165 11.125H2.83331C2.44211 11.125 2.12498 10.8079 2.12498 10.4167V6.16671H14.875V10.4167C14.875 10.8079 14.5579 11.125 14.1666 11.125H13.4583C13.0671 11.125 12.75 11.4422 12.75 11.8334C12.75 12.2246 13.0671 12.5417 13.4583 12.5417H14.1666C15.3403 12.5417 16.2916 11.5903 16.2916 10.4167V3.33337ZM14.875 4.75004V3.33337C14.875 2.94218 14.5579 2.62504 14.1666 2.62504H2.83331C2.44211 2.62504 2.12498 2.94217 2.12498 3.33337V4.75004H14.875Z" fill="white"/>
<path d="M9.20834 16.0833C9.20834 16.4745 8.89122 16.7916 8.50001 16.7916C8.1088 16.7916 7.79168 16.4745 7.79168 16.0833V12.1215L6.8759 13.0372C6.59925 13.3139 6.15079 13.3139 5.87414 13.0372C5.59754 12.7607 5.59754 12.3121 5.87414 12.0356L7.99879 9.91534C8.27547 9.63916 8.72356 9.63944 9.00002 9.91584L11.1244 12.0403C11.4011 12.3169 11.4011 12.7654 11.1244 13.0421C10.8478 13.3186 10.3993 13.3186 10.1227 13.0421L9.20834 12.1277V16.0833Z" fill="white"/>
</svg>
